<svg xmlns="http://www.w3.org/2000/svg" width="17.915" height="22" viewBox="0 0 17.915 22">
  <g id="_104490_apple_icon" data-name="104490_apple_icon" transform="translate(-8.315 -4.374)">
    <path id="Path_2591" data-name="Path 2591" d="M23.278,22.62a4.984,4.984,0,0,1,2.375-4.191A5.14,5.14,0,0,0,21.63,16.25c-1.713-.174-3.343,1.009-4.212,1.009s-2.209-.983-3.63-.958A5.384,5.384,0,0,0,9.236,19.06c-1.94,3.366-.5,8.354,1.394,11.086.924,1.335,2.027,2.838,3.473,2.783,1.394-.055,1.92-.9,3.6-.9s2.158.9,3.632.873c1.5-.027,2.449-1.361,3.366-2.7A12.166,12.166,0,0,0,26.23,27.07,4.86,4.86,0,0,1,23.278,22.62Z" transform="translate(0 -6.556)" fill="#263238"/>
    <path id="Path_2592" data-name="Path 2592" d="M31.514,7.887a4.853,4.853,0,0,0,1.145-3.513A4.93,4.93,0,0,0,29.418,6.04a4.614,4.614,0,0,0-1.168,3.4A4.084,4.084,0,0,0,31.514,7.887Z" transform="translate(-11.006)" fill="#263238"/>
  </g>
</svg>
