<svg xmlns="http://www.w3.org/2000/svg" width="29.999" height="29.999" viewBox="0 0 29.999 29.999">
  <g id="instagram" transform="translate(-214 -2286)">
    <rect id="Rectangle_70" data-name="Rectangle 70" width="29.999" height="29.999" transform="translate(214 2286)" fill="#b38e55"/>
    <g id="Group_7115" data-name="Group 7115" transform="translate(220.775 2292.775)">
      <path id="Path_1427" data-name="Path 1427" d="M218.946,138.583c2.2,0,2.456.009,3.324.048a4.557,4.557,0,0,1,1.527.284,2.718,2.718,0,0,1,1.561,1.561,4.556,4.556,0,0,1,.284,1.527c.039.868.048,1.128.048,3.324s-.009,2.456-.048,3.323a4.558,4.558,0,0,1-.284,1.527,2.718,2.718,0,0,1-1.561,1.561,4.541,4.541,0,0,1-1.527.283c-.868.039-1.127.048-3.324.048s-2.456-.009-3.323-.048a4.547,4.547,0,0,1-1.528-.283,2.724,2.724,0,0,1-1.561-1.561,4.542,4.542,0,0,1-.283-1.527c-.039-.867-.048-1.127-.048-3.323s.009-2.456.048-3.324a4.541,4.541,0,0,1,.283-1.527,2.724,2.724,0,0,1,1.561-1.561,4.563,4.563,0,0,1,1.528-.284c.867-.039,1.127-.048,3.323-.048m0-1.482c-2.234,0-2.514.01-3.391.05a6.046,6.046,0,0,0-2,.382,4.206,4.206,0,0,0-2.4,2.406,6.022,6.022,0,0,0-.382,2c-.04.877-.05,1.157-.05,3.391s.009,2.514.05,3.391a6.022,6.022,0,0,0,.382,2,4.206,4.206,0,0,0,2.4,2.406,6.068,6.068,0,0,0,2,.382c.877.039,1.157.049,3.391.049s2.514-.009,3.391-.049a6.063,6.063,0,0,0,2-.382,4.21,4.21,0,0,0,2.406-2.406,6.042,6.042,0,0,0,.382-2c.04-.877.05-1.157.05-3.391s-.009-2.514-.05-3.391a6.042,6.042,0,0,0-.382-2,4.21,4.21,0,0,0-2.406-2.406,6.042,6.042,0,0,0-2-.382c-.877-.039-1.157-.05-3.391-.05" transform="translate(-210.722 -137.101)" fill="#fff"/>
      <path id="Path_1428" data-name="Path 1428" d="M220.021,142.178a4.223,4.223,0,1,0,4.223,4.223,4.223,4.223,0,0,0-4.223-4.223m0,6.964a2.741,2.741,0,1,1,2.741-2.741,2.741,2.741,0,0,1-2.741,2.741" transform="translate(-211.797 -138.176)" fill="#fff"/>
      <path id="Path_1429" data-name="Path 1429" d="M227.448,141.7a.987.987,0,1,1-.987-.987.987.987,0,0,1,.987.987" transform="translate(-213.847 -137.866)" fill="#fff"/>
    </g>
  </g>
</svg>
