<svg xmlns="http://www.w3.org/2000/svg" width="120.555" height="42" viewBox="0 0 120.555 42">
  <g id="Group_7109" data-name="Group 7109" transform="translate(-1109.365 -19)">
    <g id="Group_7105" data-name="Group 7105" transform="translate(1086.497 -43.843)">
      <path id="Path_2722" data-name="Path 2722" d="M288.219,146.354a2.177,2.177,0,0,1-.126.534,2.317,2.317,0,0,1-.247.489,2.7,2.7,0,0,1-1.8,1.158,2.672,2.672,0,0,1-1.1-.053,3.131,3.131,0,0,1-.99-.453,3.377,3.377,0,0,1-.42-.346l-.049-.047-.047-.049-.093-.1-.087-.1-.043-.053-.041-.055a3.788,3.788,0,0,1-.706-1.994c-.01-.117-.012-.234-.01-.351,0-.059,0-.117,0-.175a4.738,4.738,0,0,1,.055-.52c.013-.086.031-.171.048-.255s.038-.169.062-.251c.043-.166.1-.329.158-.489a6.412,6.412,0,0,1,.816-1.5q-.1.474-.245.94l0,.006c-.042.122-.081.243-.117.366-.03.1-.056.2-.081.3a5.141,5.141,0,0,0-.136,1.873,3.738,3.738,0,0,0,.082.455,3.568,3.568,0,0,0,.132.439,3.887,3.887,0,0,0,.184.415,3.161,3.161,0,0,0,.24.379,2.706,2.706,0,0,0,1.435,1,2.151,2.151,0,0,0,.867.064,2.191,2.191,0,0,0,.426-.1,2.259,2.259,0,0,0,.4-.187,2.213,2.213,0,0,0,.656-.59,1.9,1.9,0,0,0,.347-.805,1.384,1.384,0,0,0-.109-.848,1.251,1.251,0,0,0-.621-.595.914.914,0,0,0-.428-.072.957.957,0,0,0-.425.134,1.054,1.054,0,0,0-.337.313.871.871,0,0,0-.148.444l-.049,0a.919.919,0,0,1,.1-.5,1.149,1.149,0,0,1,1.382-.572,1.526,1.526,0,0,1,.842.68,1.6,1.6,0,0,1,.2.522A1.886,1.886,0,0,1,288.219,146.354Z" transform="translate(-152.721 -70.897)" fill="#122d47"/>
      <path id="Path_2723" data-name="Path 2723" d="M250.36,420.07a.085.085,0,0,0-.053-.061c-.066-.026-.157.017-.422.308a.673.673,0,0,0-.078.059c-.02.016-.046.038-.054.044a2.24,2.24,0,0,1-.2.114,2.89,2.89,0,0,1-.477.193,4.383,4.383,0,0,1-.927.177,11.2,11.2,0,0,1-1.394.009c-.236-.008-.479-.017-.719-.018a4.681,4.681,0,0,0-2.029.362,3.934,3.934,0,0,0-1.623,1.441h0c-.016.024-.057.088-.009.131a.061.061,0,0,0,.033.015c.074.01.194-.084.233-.117a2.067,2.067,0,0,0,.41-.448c.012-.02.026-.04.043-.062a.735.735,0,0,0,.087-.06c.019-.015.039-.029.058-.041a2.621,2.621,0,0,1,.447-.22,3.894,3.894,0,0,1,.871-.22,9.553,9.553,0,0,1,1.623-.035c.142.005.284.01.426.013a6.128,6.128,0,0,0,1.912-.194,3.733,3.733,0,0,0,1.652-1.089l.008-.009C250.324,420.213,250.374,420.131,250.36,420.07Z" transform="translate(-116.682 -320.929)" fill="#b38e55"/>
      <path id="Path_2724" data-name="Path 2724" d="M284.712,288.194c0-.044-.022-.321-.074-.16a8.312,8.312,0,0,0-.338,1.536,4.958,4.958,0,0,0-.03,1.632c.086.377.433.647.8.4s.394-.855.417-1.262c0-.051.028-.331-.053-.3s-.082.328-.088.462c0-.095-.023.036-.057.091a.592.592,0,0,1-.1.118.528.528,0,0,1-.319.145.492.492,0,0,1-.488-.453,3.76,3.76,0,0,1,.254-1.621A1.9,1.9,0,0,0,284.712,288.194Z" transform="translate(-154.291 -202.302)" fill="#b38e55"/>
      <g id="Group_7097" data-name="Group 7097" transform="translate(119.871 72.857)">
        <path id="Path_2725" data-name="Path 2725" d="M186.416,210.168a.845.845,0,0,0-.627.549,1.212,1.212,0,0,0-.079.405c0,.1.021.112.061.012a.747.747,0,0,1,.636-.407,1.03,1.03,0,0,1,.768.307,2.276,2.276,0,0,1,.439,1.848c-.006.1.027.1.061.012a1.41,1.41,0,0,0,.079-.405,2.508,2.508,0,0,0-.468-2.027A1,1,0,0,0,186.416,210.168Z" transform="translate(-185.652 -205.224)" fill="#b38e55"/>
        <path id="Path_2726" data-name="Path 2726" d="M186.592,172.545a.048.048,0,0,0,0-.037l-.006.01C186.591,172.526,186.592,172.535,186.592,172.545Z" transform="translate(-186.442 -171.397)" fill="#b38e55"/>
        <path id="Path_2727" data-name="Path 2727" d="M187.725,165.953a2.721,2.721,0,0,0-1.052-1.374,3.857,3.857,0,0,1-1.27-1.338,1.569,1.569,0,0,1-.117-.4c0-.015,0-.082,0-.133-.014.028-.045.039-.012-.011l.01-.017a.059.059,0,0,0-.008-.03.047.047,0,0,1,.014.021c.016-.03.03-.061.049-.09a1.037,1.037,0,0,1,.632-.422,1.012,1.012,0,0,1,1.219.956c0,.1.026.1.061.012a1.283,1.283,0,0,0,.079-.405,1.038,1.038,0,0,0-1.689-.926,1.271,1.271,0,0,0-.426.734,2.062,2.062,0,0,0-.029,1,1.964,1.964,0,0,0,.444.8c.441.5,1.041.833,1.491,1.327a1.9,1.9,0,0,1,.51,1.015,3.037,3.037,0,0,1-.129,1.139c-.013.051-.089.324-.039.358s.085-.163.092-.19A4.332,4.332,0,0,0,187.725,165.953Z" transform="translate(-185.134 -161.56)" fill="#b38e55"/>
      </g>
      <g id="Group_7098" data-name="Group 7098" transform="translate(130.476 89.698)">
        <path id="Path_2728" data-name="Path 2728" d="M291.3,329.3a5.03,5.03,0,0,1,.054-.837q.014-.073-.021.055c-.027.062-.048.124-.078.184a2.36,2.36,0,0,1-.342.5,2.117,2.117,0,0,1-1,.628c-.093.028-.13.282-.14.332a5.07,5.07,0,0,0-.094.816c0,.083-.013,1.2.113,1.166,1.7-.509,1.921-2.492,1.866-4,0-.089-.064-.872-.216-.428a4.638,4.638,0,0,0-.145,1.58Z" transform="translate(-289.68 -327.58)" fill="#132d46"/>
      </g>
      <g id="Group_7099" data-name="Group 7099" transform="translate(129.393 89.957)">
        <path id="Path_2729" data-name="Path 2729" d="M280.64,330.91c.023-.172-.03.1-.051.148a2.092,2.092,0,0,1-.211.383,1.915,1.915,0,0,1-.636.626c-.155.082-.219.04-.363,0l-.029-.058.037.427a1.152,1.152,0,0,0,0-.282l-.011-1.186c0-.082.017-.967-.171-.819-.1.08-.118.428-.132.526a6.245,6.245,0,0,0-.064.891c.005.619,0,1.24.017,1.858.01.3,0,1.174.52.994a1.97,1.97,0,0,0,.857-.814,3.743,3.743,0,0,0,.477-1.51,4.631,4.631,0,0,0,.021-1.587c-.1-.443-.247.309-.259.4Z" transform="translate(-279.007 -330.132)" fill="#132d46"/>
      </g>
      <path id="Path_2730" data-name="Path 2730" d="M207.873,66.343a4.186,4.186,0,0,0-2.676-3.2,4.77,4.77,0,0,0-4,.307,6.384,6.384,0,0,0-2.74,3.3,8.191,8.191,0,0,0-.34,1.145,5.124,5.124,0,0,0-.086,1.637c.006.063.016.341.1.345s.135-.308.141-.333A6.171,6.171,0,0,1,200.55,66.1a4.8,4.8,0,0,1,3.963-.816,4.006,4.006,0,0,1,2.984,2.645,3.711,3.711,0,0,1,.123.548c0,.03.015.131.019.169,0,.013,0,.039,0,.059a.008.008,0,0,0,0,0c-.009-.091-.015-.006,0,.032,0,.028-.008.056-.009.064s0,.034-.006.042c-.007.04-.014.079-.022.119-.023.114-.046.228-.074.341a12.218,12.218,0,0,1-.86,2.341,23.7,23.7,0,0,1-1.934,3.264,5.51,5.51,0,0,0,.484.563c.114.119.232.235.351.348.36-.582.7-1.177,1-1.793.225-.459.432-.929.614-1.413q.087-.229.165-.462.062-.183.117-.366l0-.006q.141-.465.245-.94t.17-.953A11.1,11.1,0,0,0,207.873,66.343Z" transform="translate(-76.824)" fill="#132d46"/>
      <g id="Group_7100" data-name="Group 7100" transform="translate(119.571 69.415)">
        <path id="Path_2731" data-name="Path 2731" d="M183.266,324.359c-.006-.093,0-.052-.006-.145,0-.037.005-.355,0-.177,0-.087.028-.876-.17-.448a2.655,2.655,0,0,0-.145.408,3.75,3.75,0,0,0,.352.69C183.283,324.578,183.273,324.469,183.266,324.359Z" transform="translate(-182.866 -303.598)" fill="#132d46"/>
        <path id="Path_2732" data-name="Path 2732" d="M199.5,146.675a11.2,11.2,0,0,0-1.186-4.958,13,13,0,0,0-3.355-3.94,42.806,42.806,0,0,1-4.107-3.552c-3.158-3.423-1.937-5.705-1.937-6.24,0-.063.02-.34-.068-.354a.05.05,0,0,0-.039.013c-.025,0-.057.03-.1.126a14.983,14.983,0,0,0-1.187,5.264,12.271,12.271,0,0,0,.214,3.1c.227-.314.461-.633.7-.96l.051-.069a9.209,9.209,0,0,1-.433-1.927,8.22,8.22,0,0,1-.056-1.156c0-.042,0-.083,0-.125v-.013c.006-.1.013-.2.021-.3,0-.021,0-.042.007-.063,0,.011.01-.076.017-.128-.01.1.007-.054.014-.087s.016-.079.024-.119c.021-.107,0-.067-.008-.019a2.4,2.4,0,0,1,.076-.256l.008-.029h0a7.3,7.3,0,0,0,.627,3.1,11.7,11.7,0,0,0,3.2,3.953c1.346,1.15,2.806,2.173,4.047,3.443a10.43,10.43,0,0,1,2.542,4.258,10.037,10.037,0,0,1,.42,2.361c.009.156.011.306.01.479,0,.075,0,.15,0,.225,0,.023,0,.058,0,.068,0,.059-.008.117-.012.176l0,.023-.011.1,0,.026,0,.018s-.005.033-.01.063l-.005.024q-.011.054-.022.107l0,.009c-.009.032-.057.216-.049.194q-.038.129-.079.257c-.057.176-.108.311-.181.489a7.706,7.706,0,0,1-.5,1,8.886,8.886,0,0,1-1.419,1.793,8.729,8.729,0,0,1-8.4,2.291,8.364,8.364,0,0,1-4.567-3.5A3.769,3.769,0,0,1,182.2,151l-.025-.024a7.8,7.8,0,0,0,1.018,2.895,8.622,8.622,0,0,0,3.285,3.158,8.42,8.42,0,0,0,8.8-.8,9.187,9.187,0,0,0,3.01-3.568A13.807,13.807,0,0,0,199.5,146.675Zm-.559,2.565s0-.025.009-.052A.479.479,0,0,1,198.937,149.239Zm.011-.043a.194.194,0,0,1,0-.037l.006-.029A.318.318,0,0,1,198.947,149.2Zm.01-.067,0,.022.007-.042Z" transform="translate(-182.18 -127.63)" fill="#132d46"/>
        <path id="Path_2733" data-name="Path 2733" d="M307.64,339.4c.008.064.013.117.014.141,0,.074.005.148.007.223a1.207,1.207,0,0,0,.062.107C307.73,339.577,307.683,339.435,307.64,339.4Z" transform="translate(-294.913 -317.915)" fill="#132d46"/>
        <path id="Path_2734" data-name="Path 2734" d="M252.384,236.015l-.008-.015c-.122-.248-.072-.4-.012-.349-.031-.24-.107-.638-.2-.287-.286,1.069-.565,3.565,1.157,3.6a2.192,2.192,0,0,0,1.944-1.515,1.293,1.293,0,0,0,.177-.439c.039-.11.073-.219.1-.326a4.4,4.4,0,0,0,.15-1.055,7.059,7.059,0,0,0-.067-2.228,6.46,6.46,0,0,0-.978-2.249,15.726,15.726,0,0,0-3.69-3.562,17.574,17.574,0,0,1-3.83-3.6l-.036-.053-.295.4c-.223.3-.449.611-.674.922a11.555,11.555,0,0,0,2.633,3.144c1.37,1.187,2.912,2.178,4.208,3.45a8.715,8.715,0,0,1,1.718,2.31q.106.213.2.433a1.479,1.479,0,0,1-.853,1.952l-.016.006a1.442,1.442,0,0,1-1.1-.029,1.127,1.127,0,0,1-.406-.33c-.019-.025-.036-.051-.053-.077a5.522,5.522,0,0,1-.214,1.25A5.039,5.039,0,0,0,252.384,236.015Z" transform="translate(-239.637 -214.17)" fill="#132d46"/>
      </g>
      <path id="Path_2735" data-name="Path 2735" d="M204.467,313v-.015C204.463,312.88,204.467,312.965,204.467,313Z" transform="translate(-82.634 -224.722)" fill="#132d46"/>
      <g id="Group_7102" data-name="Group 7102" transform="translate(119.059 77.253)">
        <g id="Group_7101" data-name="Group 7101" transform="translate(2.407 0)">
          <path id="Path_2736" data-name="Path 2736" d="M201.233,314.28s0-.091-.006-.164c-.121.109-.242.217-.365.323,0,.011,0,.023,0,.034-.008.335-.005.673.011,1.011a3.252,3.252,0,0,0,.62.212,6.856,6.856,0,0,1-.206-.924C201.263,314.619,201.239,314.373,201.233,314.28Z" transform="translate(-200.858 -303.036)" fill="#132d46"/>
          <path id="Path_2737" data-name="Path 2737" d="M224.052,208.695c.657-.935,1.348-1.852,2.02-2.78a9.087,9.087,0,0,1-.861-1.022c-.773,1.048-1.541,2.1-2.226,3.2q-.162.261-.316.526A4.663,4.663,0,0,1,224.052,208.695Z" transform="translate(-220.457 -204.893)" fill="#132d46"/>
          <path id="Path_2738" data-name="Path 2738" d="M217.083,330.3c-.013-.057-.046-.23-.128-.124-1.018,1.33-2.229,2.847-4.051,2.933a2.68,2.68,0,0,1-.6-.039,5.447,5.447,0,0,1-1.971.427,4.7,4.7,0,0,1-.507-.019,3.594,3.594,0,0,0,1.993,1.819c1.684.547,3.269-.656,4.3-1.863.283-.331.548-.676.812-1.022a1.388,1.388,0,0,0,.132-.526,6.4,6.4,0,0,0,.064-.891A3.092,3.092,0,0,0,217.083,330.3Z" transform="translate(-208.914 -317.442)" fill="#132d46"/>
        </g>
        <path id="Path_2739" data-name="Path 2739" d="M186.206,302.653a6.448,6.448,0,0,1-.064.891,1.584,1.584,0,0,1-.132.526,8.043,8.043,0,0,1-1.895,2.262,4.711,4.711,0,0,1-5.065.757,3.584,3.584,0,0,1-1.576-1.727c-.021-.049-.041-.1-.058-.148-.01-.025-.019-.05-.028-.075a4.9,4.9,0,0,1-.254-1.524q.1-.233.218-.461l.017-.033.022-.044q.08-.155.165-.308c0,.018.009.035.014.053a2.912,2.912,0,0,0,.24.579,3.392,3.392,0,0,0,.3.47c.028.037.057.073.086.108a3.2,3.2,0,0,0,.482.472,3.876,3.876,0,0,0,2.746.748,6.194,6.194,0,0,0,4.61-3.365c.071-.121.117.08.127.124A3.067,3.067,0,0,1,186.206,302.653Z" transform="translate(-177.134 -291.965)" fill="#132d46"/>
      </g>
      <path id="Path_2740" data-name="Path 2740" d="M257.091,118.766a2.96,2.96,0,0,0-.355-.729,1.418,1.418,0,0,0-.591-.577c-.108-.035-.406.75-.349.769a1.255,1.255,0,0,1,.51.464,2.782,2.782,0,0,1,.42.8,3.92,3.92,0,0,1,.11,1.84c-.026.167.121-.077.136-.1a1.685,1.685,0,0,0,.219-.535A4.1,4.1,0,0,0,257.091,118.766Z" transform="translate(-128.752 -49.076)" fill="#b38e55"/>
      <path id="Path_2741" data-name="Path 2741" d="M160.747,285.375a.689.689,0,0,1,.678-.042.989.989,0,0,1,.278.189c.056.054.052.077-.028.042a.609.609,0,0,0-.6.13.84.84,0,0,0-.268.619,1.856,1.856,0,0,0,.807,1.321c.061.055.042.074-.028.042a1.145,1.145,0,0,1-.279-.189,2.045,2.045,0,0,1-.894-1.441A.818.818,0,0,1,160.747,285.375Z" transform="translate(-43.049 -199.858)" fill="#b38e55"/>
      <path id="Path_2742" data-name="Path 2742" d="M359.067,374.166c0-.044-.007-.037,0,.12,0-.025,0-.052,0-.08,0-.012,0-.024,0-.033C359.064,374.2,359.065,374.192,359.067,374.166Z" transform="translate(-221.55 -279.721)" fill="#b38e55"/>
      <path id="Path_2743" data-name="Path 2743" d="M186.83,258.922c0-.089-.064-.872-.215-.428a4.689,4.689,0,0,0-.145,1.58c0,.033,0,.065,0,.1s-.009.124-.013.165c0,0,0,0,0,.007,0-.019.006-.055.014-.113-.005.046-.01.1-.012.147,0,.02,0,.042,0,.064v0c0,.054,0,.1-.013.1h0c0,.027-.008.053-.011.078s-.03.177-.03.182v0c-.029.152-.06.3-.095.455,0,.012-.041.154-.046.175-.024.087-.049.174-.076.26q-.079.257-.172.51a8.675,8.675,0,0,1-.412.936,9.7,9.7,0,0,1-2.685,3.257,9.718,9.718,0,0,1-14.705-3.464,8.068,8.068,0,0,1-.832-3.051c-.13-2.69,1.689-5.29,3.793-6.8a9.7,9.7,0,0,1,4.205-1.72,10.225,10.225,0,0,1,1.122-.1c.207-.008.227-1.009.234-1.148,0-.006,0-.017,0-.03q.005-.085.007-.17c.006-.165.01-.4,0-.6a.821.821,0,0,0-.038-.264c-.018-.065-.043-.1-.076-.107a5.489,5.489,0,0,0-4.11-1.472,7.665,7.665,0,0,0-2.458.859c-.82.325-2.1.418-2.435-.627-.049-.151-.142.116-.14.109a3.032,3.032,0,0,0-.116.688,3.733,3.733,0,0,0,.047,1.43c.323.994,1.483,1.076,2.327.787a10.483,10.483,0,0,1,2.512-.923,4.867,4.867,0,0,1,.742,0c-.217-.016-.665.323-.853.43q-.433.245-.84.533a9.782,9.782,0,0,0-3.641,4.886,12.205,12.205,0,0,0-.524,2.191,15.912,15.912,0,0,0-.165,2.9,12.72,12.72,0,0,0,.166,1.646q.024.149.054.3c.068.353.154.7.257,1.047q.07.235.153.465a9.939,9.939,0,0,0,5.833,5.946A9.828,9.828,0,0,0,182.407,269a9.959,9.959,0,0,0,3-3.292,12.123,12.123,0,0,0,1.4-5.158C186.842,260.012,186.847,259.466,186.83,258.922Z" transform="translate(-48.941 -165.892)" fill="#132d46"/>
      <path id="Path_2744" data-name="Path 2744" d="M170.721,364.529v-.006h0S170.721,364.527,170.721,364.529Z" transform="translate(-52.312 -271.077)" fill="#b38e55"/>
      <path id="Path_2745" data-name="Path 2745" d="M170.779,362.855a.217.217,0,0,0,.013-.086.519.519,0,0,1-.013.083Z" transform="translate(-52.364 -269.501)" fill="#b38e55"/>
      <g id="Group_7103" data-name="Group 7103" transform="translate(112.503 66.466)">
        <path id="Path_2746" data-name="Path 2746" d="M119.017,132.612H113.2V99.247h7.4a3.95,3.95,0,0,1,.271-.7H112.5v34.755h6.984Q119.239,132.969,119.017,132.612Z" transform="translate(-112.503 -98.552)" fill="#b38e55"/>
        <path id="Path_2747" data-name="Path 2747" d="M304.613,98.552a5.138,5.138,0,0,1,.051.7H315.35v33.365h-5.917q-.221.356-.471.7h7.083V98.552Z" transform="translate(-285.125 -98.552)" fill="#b38e55"/>
      </g>
      <path id="Path_2748" data-name="Path 2748" d="M359.078,375.409h0l-.009.065h0Z" transform="translate(-221.554 -280.858)" fill="#b38e55"/>
      <g id="Group_7104" data-name="Group 7104" transform="translate(123.821 85.898)">
        <path id="Path_2749" data-name="Path 2749" d="M226.689,292.938a4.314,4.314,0,0,0-1.377.287,5.574,5.574,0,0,0-1.241.694,1.038,1.038,0,0,1,.152-.29,2.051,2.051,0,0,1,.248-.28,3.022,3.022,0,0,1,.318-.262,4.229,4.229,0,0,1,.362-.234.907.907,0,0,1-.273,0,1.186,1.186,0,0,1-.3-.084.686.686,0,0,1-.234-.161.324.324,0,0,1-.089-.241,1.55,1.55,0,0,1,.112-.51,3,3,0,0,1,.262-.512,3.4,3.4,0,0,1,.362-.472,3.32,3.32,0,0,1,.418-.388,2.274,2.274,0,0,1,.425-.264.916.916,0,0,1,.383-.1.335.335,0,0,1,.248.1.61.61,0,0,1,.14.322q-.08.173-.147.344t-.138.339a1.11,1.11,0,0,0-.2-.084.693.693,0,0,0-.21-.033.815.815,0,0,0-.343.086,2.182,2.182,0,0,0-.423.278.641.641,0,0,0,.14.3.524.524,0,0,0,.32.14,2.7,2.7,0,0,0,.6,0q.376-.033.979-.122Z" transform="translate(-224.072 -290.12)" fill="#b38e55"/>
      </g>
    </g>
    <g id="Group_7108" data-name="Group 7108" transform="translate(1032.481 -488.781)">
      <g id="Group_7106" data-name="Group 7106" transform="translate(76.884 513.781)">
        <path id="Path_2750" data-name="Path 2750" d="M94.948,563.309a.546.546,0,0,0-.389.154.5.5,0,0,0-.164.379.513.513,0,0,0,.164.389.547.547,0,0,0,.389.154.531.531,0,0,0,.384-.154.52.52,0,0,0,.159-.389.508.508,0,0,0-.159-.379A.531.531,0,0,0,94.948,563.309Z" transform="translate(-90.687 -552.82)" fill="#132d46"/>
        <path id="Path_2751" data-name="Path 2751" d="M87.774,563.309a.532.532,0,0,0-.384.154.508.508,0,0,0-.159.379.52.52,0,0,0,.159.389.556.556,0,0,0,.768,0,.52.52,0,0,0,.159-.389.508.508,0,0,0-.159-.379A.531.531,0,0,0,87.774,563.309Z" transform="translate(-85.04 -552.82)" fill="#132d46"/>
        <path id="Path_2752" data-name="Path 2752" d="M130.669,552.96a.528.528,0,0,0-.543.543.517.517,0,0,0,.154.38.56.56,0,0,0,.773,0,.51.51,0,0,0,.159-.38.519.519,0,0,0-.159-.388A.532.532,0,0,0,130.669,552.96Z" transform="translate(-118.851 -544.663)" fill="#132d46"/>
        <path id="Path_2753" data-name="Path 2753" d="M88.309,533.463H86.286v-1.274a2.657,2.657,0,0,0-.2-1.114,1.461,1.461,0,0,0-.562-.646,2.292,2.292,0,0,0-.871-.3,7.7,7.7,0,0,0-1.124-.075H82.7v2.472a3.837,3.837,0,0,1-.178,1.245,2.158,2.158,0,0,1-.515.847,1.99,1.99,0,0,1-.815.482,3.592,3.592,0,0,1-1.077.15,3.656,3.656,0,0,1-.993-.131,2.578,2.578,0,0,1-.824-.389,1.906,1.906,0,0,1-.566-.646,1.866,1.866,0,0,1-.211-.9,3.351,3.351,0,0,1,.065-.651,2.248,2.248,0,0,1,.281-.7l-.3-.1a3.1,3.1,0,0,0-.478.8,2.7,2.7,0,0,0-.206,1.072,2.617,2.617,0,0,0,.188.965,2.327,2.327,0,0,0,.585.852,2.979,2.979,0,0,0,1.011.6,4.75,4.75,0,0,0,3.081-.056,3.039,3.039,0,0,0,1.124-.792,3.19,3.19,0,0,0,.655-1.2,5.239,5.239,0,0,0,.211-1.522v-1.685a1.528,1.528,0,0,1,1.086.384,1.353,1.353,0,0,1,.412,1.04v2.023h4.13v-4.158H88.309Z" transform="translate(-76.884 -526.608)" fill="#132d46"/>
        <path id="Path_2754" data-name="Path 2754" d="M139.721,525.423a4.689,4.689,0,0,0,.122-1.143v-.6a1.49,1.49,0,0,0,.384.792,1.038,1.038,0,0,0,.787.313h7.135V518.1H147.09v5.941h-3.381a3.093,3.093,0,0,1-.342-.314,2.244,2.244,0,0,1-.3-.4,2.351,2.351,0,0,1-.215-.478,1.664,1.664,0,0,1-.085-.52,1.389,1.389,0,0,1,.122-.608,1.149,1.149,0,0,1,.323-.412,1.271,1.271,0,0,1,.468-.229,2.181,2.181,0,0,1,.557-.07,2.093,2.093,0,0,1,.393.052,1.781,1.781,0,0,1,.44.145v-.749a2.237,2.237,0,0,0-.566-.173,3.339,3.339,0,0,0-.595-.061,2.866,2.866,0,0,0-.81.117,2.084,2.084,0,0,0-.707.361,1.883,1.883,0,0,0-.5.6,1.8,1.8,0,0,0-.192.857,1.946,1.946,0,0,0,.271,1.011,4.249,4.249,0,0,0,.693.871h-1.91a.775.775,0,0,1-.7-.314,1.583,1.583,0,0,1-.206-.875v-2.219h-1.058v3.943a4.2,4.2,0,0,1-.075.881,1.328,1.328,0,0,1-.22.524.71.71,0,0,1-.356.252,1.653,1.653,0,0,1-.492.066q-.112,0-.267-.014a1.15,1.15,0,0,1-.286-.061,1.716,1.716,0,0,1-.066.244,2.179,2.179,0,0,0,.548.253,2.057,2.057,0,0,0,.6.093,1.565,1.565,0,0,0,.674-.145,1.357,1.357,0,0,0,.529-.454A2.358,2.358,0,0,0,139.721,525.423Z" transform="translate(-124.287 -517.182)" fill="#132d46"/>
        <rect id="Rectangle_9464" data-name="Rectangle 9464" width="1.049" height="6.69" transform="translate(25.369 0.914)" fill="#132d46"/>
        <path id="Path_2755" data-name="Path 2755" d="M221.245,531.929h-2.1q-.047-.225-.085-.459t-.065-.477q-.066-.524-.178-1.044a2.841,2.841,0,0,0-.37-.927,1.921,1.921,0,0,0-.721-.66,2.571,2.571,0,0,0-1.231-.253,2.952,2.952,0,0,0-.4.028c-.134.019-.265.044-.393.075s-.25.066-.365.1-.217.075-.3.113l.159.524a2.886,2.886,0,0,1,.993-.215,1.684,1.684,0,0,1,.721.141,1.378,1.378,0,0,1,.5.393,1.9,1.9,0,0,1,.314.6,3.459,3.459,0,0,1,.15.749q.056.346.131.688a2.981,2.981,0,0,0,.206.623h-3.849v1.386a2.489,2.489,0,0,0,.169.964,1.693,1.693,0,0,0,.487.665,2.086,2.086,0,0,0,.763.389,3.653,3.653,0,0,0,1,.126,3.3,3.3,0,0,0,.515-.037,3.708,3.708,0,0,0,.431-.094c-.007-.056-.013-.112-.019-.169a1.6,1.6,0,0,0-.028-.168,1.907,1.907,0,0,1-.3.047q-.145.009-.285.009a1.543,1.543,0,0,1-1.307-.543,2.393,2.393,0,0,1-.417-1.489v-.337H222.3V528.52h-1.058Z" transform="translate(-185.248 -525.074)" fill="#132d46"/>
        <path id="Path_2756" data-name="Path 2756" d="M243.4,517.076a.954.954,0,0,1,.061-.375.51.51,0,0,1,.173-.22.612.612,0,0,1,.267-.1,2.257,2.257,0,0,1,.333-.023h.374v-.646h-.552a2.07,2.07,0,0,0-.487.056,1.091,1.091,0,0,0-.421.2.993.993,0,0,0-.3.412,1.794,1.794,0,0,0-.112.688v.637h-.777v.646h2.725V517.7H243.4Z" transform="translate(-206.997 -515.301)" fill="#132d46"/>
        <path id="Path_2757" data-name="Path 2757" d="M267.722,524.786a1.908,1.908,0,0,0,.59-.08,1.043,1.043,0,0,0,.4-.224,1,1,0,0,0,.239-.351,1.7,1.7,0,0,0,.112-.45,1.491,1.491,0,0,0,.384.792,1.045,1.045,0,0,0,.776.312l.011,0h2.332V518.1h-1.058v5.941h-1.517a.955.955,0,0,1-.431-.089.686.686,0,0,1-.281-.253,1.18,1.18,0,0,1-.15-.384,2.31,2.31,0,0,1-.047-.482v-2.2h-1.049v2.763a1.014,1.014,0,0,1-.089.51.427.427,0,0,1-.379.136h-.384a.955.955,0,0,1-.431-.089.687.687,0,0,1-.281-.253,1.177,1.177,0,0,1-.15-.384,2.314,2.314,0,0,1-.047-.482v-1.6h-1.049v2.182a.921.921,0,0,1-.093.492.4.4,0,0,1-.356.136H264.3a.955.955,0,0,1-.431-.089.685.685,0,0,1-.281-.253,1.167,1.167,0,0,1-.15-.384,2.3,2.3,0,0,1-.047-.482v-1.02h-1.04v1.6a.921.921,0,0,1-.094.492.415.415,0,0,1-.365.136h-2.135V518.1h-1.049v6.69h3.325a1.905,1.905,0,0,0,.59-.08,1.042,1.042,0,0,0,.4-.224,1,1,0,0,0,.239-.347,1.629,1.629,0,0,0,.112-.454,1.278,1.278,0,0,0,.412.81,1.219,1.219,0,0,0,.834.295h.29a1.319,1.319,0,0,0,.983-.3,1.386,1.386,0,0,0,.356-.8,1.3,1.3,0,0,0,.407.805,1.18,1.18,0,0,0,.82.3Z" transform="translate(-220.207 -517.182)" fill="#132d46"/>
        <rect id="Rectangle_9465" data-name="Rectangle 9465" width="1.049" height="6.69" transform="translate(53.864 0.914)" fill="#132d46"/>
        <path id="Path_2758" data-name="Path 2758" d="M354.24,520.925a.538.538,0,0,0,.389-.159.527.527,0,0,0,.164-.394.507.507,0,0,0-.164-.374.538.538,0,0,0-.389-.159.523.523,0,0,0-.384.159.513.513,0,0,0-.159.374.535.535,0,0,0,.159.394A.524.524,0,0,0,354.24,520.925Z" transform="translate(-295.076 -518.556)" fill="#132d46"/>
        <path id="Path_2759" data-name="Path 2759" d="M361.448,520.925a.518.518,0,0,0,.389-.159.543.543,0,0,0,.155-.394.543.543,0,0,0-.927-.374.513.513,0,0,0-.159.374.535.535,0,0,0,.159.394A.523.523,0,0,0,361.448,520.925Z" transform="translate(-300.757 -518.556)" fill="#132d46"/>
        <path id="Path_2760" data-name="Path 2760" d="M353.978,521.385h4.252v-2.369a2.824,2.824,0,0,0-.183-1.1,1.625,1.625,0,0,0-.5-.669,1.819,1.819,0,0,0-.754-.333,4.716,4.716,0,0,0-.941-.089l1.583-2.5-.814-.543-1.967,3.137v.609h1.2a1.4,1.4,0,0,1,.6.117,1.139,1.139,0,0,1,.407.313,1.284,1.284,0,0,1,.234.469,2.189,2.189,0,0,1,.075.58v1.63h-4.139c.012-.162.022-.319.028-.468s.009-.3.009-.459q0-.655-.052-1.278t-.136-1.2h-1.433a2.352,2.352,0,0,0-.894.173,2.234,2.234,0,0,0-.749.5,2.419,2.419,0,0,0-.515.777,2.58,2.58,0,0,0-.192,1.016,3.949,3.949,0,0,0,.1.861,4.253,4.253,0,0,0,.276.833h4.5Zm-1.962-1.335q-.023.286-.07.586h-1.573a2.309,2.309,0,0,1-.187-.557,3.013,3.013,0,0,1-.056-.576,1.774,1.774,0,0,1,.131-.73,1.458,1.458,0,0,1,.318-.469,1.112,1.112,0,0,1,.407-.253,1.249,1.249,0,0,1,.4-.075h.534q.047.366.084.74t.037.768C352.039,519.672,352.032,519.86,352.016,520.051Z" transform="translate(-291.452 -513.781)" fill="#132d46"/>
        <path id="Path_2761" data-name="Path 2761" d="M438.379,524.131a.517.517,0,0,0,.159.388.541.541,0,0,0,.927-.388.517.517,0,0,0-.154-.38.56.56,0,0,0-.773,0A.507.507,0,0,0,438.379,524.131Z" transform="translate(-361.825 -521.518)" fill="#132d46"/>
        <path id="Path_2762" data-name="Path 2762" d="M434.578,519.431a.552.552,0,0,0,.553-.543.539.539,0,0,0-.159-.389.528.528,0,0,0-.394-.164.5.5,0,0,0-.379.164.548.548,0,0,0-.155.389.535.535,0,0,0,.155.379A.5.5,0,0,0,434.578,519.431Z" transform="translate(-358.408 -517.371)" fill="#132d46"/>
        <path id="Path_2763" data-name="Path 2763" d="M430.342,524.808a.533.533,0,0,0,.384-.154.52.52,0,0,0,.159-.389.508.508,0,0,0-.159-.379.555.555,0,0,0-.768,0,.508.508,0,0,0-.159.379.52.52,0,0,0,.159.389A.532.532,0,0,0,430.342,524.808Z" transform="translate(-355.061 -521.624)" fill="#132d46"/>
        <path id="Path_2764" data-name="Path 2764" d="M404.812,530.054v3.409H404a.956.956,0,0,1-.431-.089.688.688,0,0,1-.281-.253,1.178,1.178,0,0,1-.15-.384,2.319,2.319,0,0,1-.047-.482v-1.6H402.04v2.182a.922.922,0,0,1-.093.492.4.4,0,0,1-.356.136h-.468a.957.957,0,0,1-.431-.089.686.686,0,0,1-.281-.253,1.167,1.167,0,0,1-.15-.384,2.3,2.3,0,0,1-.047-.482v-1.02h-1.04v1.6a.92.92,0,0,1-.094.492.415.415,0,0,1-.365.136h-1.76a.775.775,0,0,1-.7-.314,1.584,1.584,0,0,1-.206-.875v-2.219h-1.058V534a4.2,4.2,0,0,1-.075.881,1.328,1.328,0,0,1-.22.524.711.711,0,0,1-.356.252,1.654,1.654,0,0,1-.492.066q-.112,0-.267-.014a1.149,1.149,0,0,1-.285-.061,1.714,1.714,0,0,1-.066.244,2.175,2.175,0,0,0,.548.253,2.056,2.056,0,0,0,.6.093,1.567,1.567,0,0,0,.674-.145,1.357,1.357,0,0,0,.529-.454,2.358,2.358,0,0,0,.342-.787,4.689,4.689,0,0,0,.122-1.143v-.6a1.491,1.491,0,0,0,.384.792,1.038,1.038,0,0,0,.786.313h1.639a1.907,1.907,0,0,0,.59-.08,1.045,1.045,0,0,0,.4-.224,1,1,0,0,0,.239-.347,1.631,1.631,0,0,0,.112-.454,1.573,1.573,0,0,0,.389.792,1.035,1.035,0,0,0,.792.313h.356a1.32,1.32,0,0,0,.983-.3,1.386,1.386,0,0,0,.356-.8,1.567,1.567,0,0,0,.389.792,1.034,1.034,0,0,0,.791.313h1.62v-4.158Z" transform="translate(-326.235 -526.608)" fill="#132d46"/>
        <path id="Path_2765" data-name="Path 2765" d="M149.21,573.063a.554.554,0,0,0,0,.768.518.518,0,0,0,.389.159.508.508,0,0,0,.379-.159.554.554,0,0,0,0-.768.508.508,0,0,0-.379-.159A.518.518,0,0,0,149.21,573.063Z" transform="translate(-133.771 -560.383)" fill="#132d46"/>
        <path id="Path_2766" data-name="Path 2766" d="M106.89,577.1h-1.517a.956.956,0,0,1-.431-.089.691.691,0,0,1-.281-.253,1.187,1.187,0,0,1-.15-.384,2.3,2.3,0,0,1-.047-.482v-2.2h-1.048v2.763a1.017,1.017,0,0,1-.089.51.427.427,0,0,1-.379.136h-.384a.954.954,0,0,1-.431-.089.688.688,0,0,1-.281-.253,1.172,1.172,0,0,1-.15-.384,2.311,2.311,0,0,1-.047-.482v-1.6h-1.049v2.182a.924.924,0,0,1-.093.492.4.4,0,0,1-.356.136h-.468a.955.955,0,0,1-.431-.089.686.686,0,0,1-.281-.253,1.164,1.164,0,0,1-.15-.384,2.312,2.312,0,0,1-.047-.482v-1.021h-1.04v1.6a.923.923,0,0,1-.094.492.416.416,0,0,1-.365.136H95.016q.018-.244.028-.468c.006-.15.009-.3.009-.459q0-.655-.056-1.278t-.131-1.2H93.518a2.575,2.575,0,0,0-.927.168,2.389,2.389,0,0,0-.777.483,2.3,2.3,0,0,0-.538.773,2.56,2.56,0,0,0-.2,1.04,4.024,4.024,0,0,0,.028.478,2.512,2.512,0,0,0,.1.468H81.29a.775.775,0,0,1-.7-.314,1.583,1.583,0,0,1-.206-.875v-2.219H79.324v3.943a4.191,4.191,0,0,1-.075.88,1.331,1.331,0,0,1-.22.525.712.712,0,0,1-.356.252,1.652,1.652,0,0,1-.492.066c-.075,0-.164,0-.267-.014a1.131,1.131,0,0,1-.286-.061,1.712,1.712,0,0,1-.066.244,2.173,2.173,0,0,0,.548.253,2.057,2.057,0,0,0,.6.093,1.567,1.567,0,0,0,.675-.145,1.355,1.355,0,0,0,.529-.454,2.358,2.358,0,0,0,.342-.787,4.691,4.691,0,0,0,.122-1.143v-.6a1.49,1.49,0,0,0,.384.791,1.038,1.038,0,0,0,.787.314h15.87a1.909,1.909,0,0,0,.59-.08,1.041,1.041,0,0,0,.4-.225,1,1,0,0,0,.239-.347,1.641,1.641,0,0,0,.112-.454,1.278,1.278,0,0,0,.412.81,1.221,1.221,0,0,0,.834.295h.291a1.319,1.319,0,0,0,.983-.3,1.386,1.386,0,0,0,.356-.8,1.3,1.3,0,0,0,.407.805,1.179,1.179,0,0,0,.819.3h.244a1.907,1.907,0,0,0,.59-.08,1.042,1.042,0,0,0,.4-.225.989.989,0,0,0,.239-.351,1.69,1.69,0,0,0,.112-.45,1.49,1.49,0,0,0,.384.791,1.044,1.044,0,0,0,.776.312l.011,0h2.332v-6.69H106.89ZM94,576.517q-.023.286-.07.586H92.357a2.3,2.3,0,0,1-.187-.557,2.962,2.962,0,0,1-.056-.576,1.772,1.772,0,0,1,.131-.73,1.46,1.46,0,0,1,.318-.468,1.116,1.116,0,0,1,.4-.253,1.206,1.206,0,0,1,.394-.075H93.9q.046.365.084.74t.037.768Q94.023,576.231,94,576.517Z" transform="translate(-77.419 -559.01)" fill="#132d46"/>
        <rect id="Rectangle_9466" data-name="Rectangle 9466" width="1.049" height="6.69" transform="translate(32.037 12.151)" fill="#132d46"/>
        <path id="Path_2767" data-name="Path 2767" d="M239.751,583.292a2.237,2.237,0,0,0-.754.5,2.415,2.415,0,0,0-.515.777,2.58,2.58,0,0,0-.192,1.016,3.464,3.464,0,0,0,.112.862,5.031,5.031,0,0,0,.29.834h2.547a2.612,2.612,0,0,1-.112.791,1.025,1.025,0,0,1-.29.455.976.976,0,0,1-.45.21,3.141,3.141,0,0,1-.6.052q-.14,0-.323-.014a1.461,1.461,0,0,1-.332-.061,1.712,1.712,0,0,1-.066.244,2.313,2.313,0,0,0,.632.253,2.968,2.968,0,0,0,.726.093,2.187,2.187,0,0,0,.595-.089,1.588,1.588,0,0,0,.58-.309,1.735,1.735,0,0,0,.449-.6,2.42,2.42,0,0,0,.2-.969c.006-.112.011-.228.014-.346s0-.241,0-.365v-3.5h-1.62A2.387,2.387,0,0,0,239.751,583.292Zm1.47,3.236h-1.648a2.3,2.3,0,0,1-.187-.557,3.015,3.015,0,0,1-.056-.576,1.776,1.776,0,0,1,.131-.73,1.458,1.458,0,0,1,.318-.468,1.1,1.1,0,0,1,.407-.253,1.25,1.25,0,0,1,.4-.075h.637Z" transform="translate(-204.109 -568.435)" fill="#132d46"/>
        <path id="Path_2768" data-name="Path 2768" d="M281.783,573.063a.514.514,0,0,0-.159.375.534.534,0,0,0,.159.393.548.548,0,0,0,.773,0,.543.543,0,0,0,.155-.393.543.543,0,0,0-.927-.375Z" transform="translate(-238.266 -560.383)" fill="#132d46"/>
        <path id="Path_2769" data-name="Path 2769" d="M274.959,572.9a.523.523,0,0,0-.384.159.513.513,0,0,0-.159.375.533.533,0,0,0,.159.393.523.523,0,0,0,.384.159.538.538,0,0,0,.389-.159.526.526,0,0,0,.164-.393.507.507,0,0,0-.164-.375A.538.538,0,0,0,274.959,572.9Z" transform="translate(-232.584 -560.383)" fill="#132d46"/>
        <path id="Path_2770" data-name="Path 2770" d="M285.606,584.075q-.047-.355-.107-.707a4.573,4.573,0,0,0-.169-.674,2.911,2.911,0,0,0-.276-.6,1.81,1.81,0,0,0-.431-.482,1.976,1.976,0,0,0-.632-.323,2.954,2.954,0,0,0-.885-.117,3.009,3.009,0,0,0-.4.028,3.95,3.95,0,0,0-.4.075q-.192.047-.36.1t-.3.113c.025.087.048.175.07.262a2.645,2.645,0,0,0,.08.262,3.216,3.216,0,0,1,1.068-.215,1.5,1.5,0,0,1,.786.178,1.317,1.317,0,0,1,.459.468,2.245,2.245,0,0,1,.248.66q.08.369.145.753.047.3.117.595a2.482,2.482,0,0,0,.192.539h-11.06q.019-.244.028-.468t.009-.459q0-.655-.052-1.278t-.136-1.2h-1.433a2.354,2.354,0,0,0-.894.173,2.24,2.24,0,0,0-.749.5,2.422,2.422,0,0,0-.515.777,2.584,2.584,0,0,0-.192,1.016,3.946,3.946,0,0,0,.1.861,4.244,4.244,0,0,0,.277.833h15.788a3.678,3.678,0,0,1-.239-.787Q285.663,584.534,285.606,584.075Zm-12.871.333q-.023.286-.07.586h-1.573a2.3,2.3,0,0,1-.188-.557,3.013,3.013,0,0,1-.056-.576,1.776,1.776,0,0,1,.131-.73,1.465,1.465,0,0,1,.319-.468,1.106,1.106,0,0,1,.407-.253,1.244,1.244,0,0,1,.4-.075h.534q.047.365.085.74t.037.768Q272.758,584.122,272.735,584.408Z" transform="translate(-228.96 -566.901)" fill="#132d46"/>
        <path id="Path_2771" data-name="Path 2771" d="M364.814,606.025a.531.531,0,0,0-.384.155.507.507,0,0,0-.159.379.52.52,0,0,0,.159.389.554.554,0,0,0,.768,0,.519.519,0,0,0,.159-.389.506.506,0,0,0-.159-.379A.531.531,0,0,0,364.814,606.025Z" transform="translate(-303.411 -586.49)" fill="#132d46"/>
        <path id="Path_2772" data-name="Path 2772" d="M371.986,606.025a.547.547,0,0,0-.389.155.5.5,0,0,0-.164.379.512.512,0,0,0,.164.389.547.547,0,0,0,.389.155.531.531,0,0,0,.384-.155.519.519,0,0,0,.159-.389.506.506,0,0,0-.159-.379A.531.531,0,0,0,371.986,606.025Z" transform="translate(-309.056 -586.49)" fill="#132d46"/>
        <path id="Path_2773" data-name="Path 2773" d="M372.773,577.1h-1.536a.9.9,0,0,1-.44-.1.783.783,0,0,1-.286-.267,1.1,1.1,0,0,1-.15-.389,2.419,2.419,0,0,1-.042-.454v-4.733h-1.049v5.3a1.018,1.018,0,0,1-.089.51.428.428,0,0,1-.38.136h-1.03a.955.955,0,0,1-.431-.089.689.689,0,0,1-.281-.253,1.181,1.181,0,0,1-.15-.384,2.314,2.314,0,0,1-.047-.482v-2.2h-1.048v2.763a1.014,1.014,0,0,1-.089.51.427.427,0,0,1-.379.136h-.384a.955.955,0,0,1-.431-.089.691.691,0,0,1-.281-.253,1.181,1.181,0,0,1-.15-.384,2.31,2.31,0,0,1-.047-.482v-1.6h-1.049v2.182a.924.924,0,0,1-.093.492.405.405,0,0,1-.356.136h-.468a.954.954,0,0,1-.431-.089.685.685,0,0,1-.281-.253,1.162,1.162,0,0,1-.15-.384,2.311,2.311,0,0,1-.047-.482v-1.021h-1.04v1.6a.924.924,0,0,1-.094.492.416.416,0,0,1-.365.136H357.94c-.05,0-.1,0-.145,0s-.092-.008-.136-.014a.68.68,0,0,1-.529-.4,1.922,1.922,0,0,1-.146-.791v-2.2h-1.049v2.763a1.014,1.014,0,0,1-.089.51.427.427,0,0,1-.379.136h-1.78v-5.941H352.64v6.69h2.987a1.9,1.9,0,0,0,.594-.08,1.045,1.045,0,0,0,.393-.225.989.989,0,0,0,.239-.351,1.7,1.7,0,0,0,.112-.45,1.522,1.522,0,0,0,.318.716,1.054,1.054,0,0,0,.637.37.527.527,0,0,0,.145.019h1.756a1.907,1.907,0,0,0,.59-.08,1.042,1.042,0,0,0,.4-.225,1,1,0,0,0,.239-.347,1.642,1.642,0,0,0,.112-.454,1.278,1.278,0,0,0,.412.81,1.22,1.22,0,0,0,.834.295h.29a1.319,1.319,0,0,0,.983-.3,1.386,1.386,0,0,0,.356-.8,1.3,1.3,0,0,0,.407.805,1.178,1.178,0,0,0,.819.3h.244a1.908,1.908,0,0,0,.59-.08,1.041,1.041,0,0,0,.4-.225.986.986,0,0,0,.239-.351,1.7,1.7,0,0,0,.112-.45,1.489,1.489,0,0,0,.384.791,1.043,1.043,0,0,0,.776.312l.011,0h.946a1.9,1.9,0,0,0,.595-.08,1.044,1.044,0,0,0,.393-.225.99.99,0,0,0,.239-.351,1.691,1.691,0,0,0,.112-.45,1.548,1.548,0,0,0,.394.791,1.05,1.05,0,0,0,.8.314h2.341v-6.69h-1.058Z" transform="translate(-294.243 -559.01)" fill="#132d46"/>
      </g>
      <g id="Group_7107" data-name="Group 7107" transform="translate(82.174 536.787)">
        <path id="Path_2774" data-name="Path 2774" d="M103.416,630.834a2.463,2.463,0,0,1-.792-.105,1.19,1.19,0,0,1-.471-.277.889.889,0,0,1-.229-.385,1.541,1.541,0,0,1-.061-.423,1.46,1.46,0,0,1,.14-.621,2,2,0,0,1,.325-.506l.2.057a1.511,1.511,0,0,0-.172.36,1.369,1.369,0,0,0-.064.429,1.246,1.246,0,0,0,.042.3.756.756,0,0,0,.172.315.969.969,0,0,0,.372.248,1.75,1.75,0,0,0,.649.1h1.719q-.038-.159-.061-.318a2.311,2.311,0,0,1-.022-.325,1.757,1.757,0,0,1,.13-.691,1.617,1.617,0,0,1,.353-.528,1.559,1.559,0,0,1,.512-.337,1.6,1.6,0,0,1,.608-.118h.974q.051.395.086.818t.035.869q0,.267-.016.551t-.048.589Zm3.692-.509q.025-.2.038-.4c.008-.129.013-.258.013-.385q0-.268-.023-.522t-.06-.5h-.356a.816.816,0,0,0-.267.051.788.788,0,0,0-.277.172.972.972,0,0,0-.22.318,1.207,1.207,0,0,0-.089.5,2.029,2.029,0,0,0,.038.392,1.428,1.428,0,0,0,.133.379Zm-.668-3.418a.362.362,0,0,1,.105-.261.352.352,0,0,1,.264-.108.345.345,0,0,1,.258.108.377.377,0,0,1,0,.522.345.345,0,0,1-.258.108.352.352,0,0,1-.264-.108A.361.361,0,0,1,106.44,626.906Z" transform="translate(-101.863 -625.665)" fill="#b38e55"/>
        <path id="Path_2775" data-name="Path 2775" d="M134.865,623.14h.713v5.016h-.713Z" transform="translate(-127.876 -622.987)" fill="#b38e55"/>
        <path id="Path_2776" data-name="Path 2776" d="M141.9,636.306a.7.7,0,0,1-.535-.213,1.01,1.01,0,0,1-.261-.538v.407a3.194,3.194,0,0,1-.083.777,1.61,1.61,0,0,1-.233.535.922.922,0,0,1-.36.309,1.065,1.065,0,0,1-.458.1,1.4,1.4,0,0,1-.411-.063,1.471,1.471,0,0,1-.372-.172,1.146,1.146,0,0,0,.045-.166.78.78,0,0,0,.194.042c.07.006.13.01.181.01a1.126,1.126,0,0,0,.334-.045.484.484,0,0,0,.242-.172.9.9,0,0,0,.149-.357,2.84,2.84,0,0,0,.051-.6v-2.68h.719v1.508a1.078,1.078,0,0,0,.14.6.527.527,0,0,0,.477.213h.306a.174.174,0,0,1,.13.038.176.176,0,0,1,.035.121v.185a.146.146,0,0,1-.165.166Z" transform="translate(-131.288 -631.138)" fill="#b38e55"/>
        <path id="Path_2777" data-name="Path 2777" d="M151.116,630.834c-.064,0-.1-.015-.118-.044a.258.258,0,0,1-.022-.115v-.21a.166.166,0,0,1,.029-.1.133.133,0,0,1,.111-.038h.853q.2,0,.258-.092a.69.69,0,0,0,.061-.347v-1.878H153v1.5a1.307,1.307,0,0,0,.1.538.462.462,0,0,0,.359.271c.03,0,.06.008.092.01s.065,0,.1,0h.306a.173.173,0,0,1,.13.038.175.175,0,0,1,.035.121v.185a.146.146,0,0,1-.166.166h-.22a.357.357,0,0,1-.1-.013.716.716,0,0,1-.433-.251,1.034,1.034,0,0,1-.216-.487,1.146,1.146,0,0,1-.076.306.671.671,0,0,1-.162.239.713.713,0,0,1-.268.153,1.291,1.291,0,0,1-.4.054Zm.541-3.934a.349.349,0,0,1,.108-.255.355.355,0,0,1,.261-.108.366.366,0,0,1,.264.108.345.345,0,0,1,.111.255.358.358,0,0,1-.111.268.367.367,0,0,1-.264.108.356.356,0,0,1-.261-.108A.363.363,0,0,1,151.657,626.9Zm1.038,0a.349.349,0,0,1,.108-.255.367.367,0,0,1,.63.255.368.368,0,0,1-.1.268.373.373,0,0,1-.525,0A.364.364,0,0,1,152.695,626.9Z" transform="translate(-140.575 -625.665)" fill="#b38e55"/>
        <path id="Path_2778" data-name="Path 2778" d="M163.914,635.263c-.059,0-.1-.015-.111-.044a.255.255,0,0,1-.022-.115v-.21a.183.183,0,0,1,.025-.1.123.123,0,0,1,.108-.038H166.6a1.67,1.67,0,0,1-.13-.366q-.048-.2-.08-.4-.044-.261-.1-.512a1.526,1.526,0,0,0-.169-.449.9.9,0,0,0-.312-.318,1.02,1.02,0,0,0-.535-.121,2.179,2.179,0,0,0-.726.146,1.757,1.757,0,0,1-.054-.178c-.015-.059-.031-.119-.048-.178.06-.025.127-.051.2-.076s.158-.049.245-.07a2.645,2.645,0,0,1,.27-.051,2.188,2.188,0,0,1,.875.06,1.339,1.339,0,0,1,.429.22,1.229,1.229,0,0,1,.293.328,1.992,1.992,0,0,1,.187.408,3.1,3.1,0,0,1,.115.458q.041.239.073.48.038.312.092.6a2.5,2.5,0,0,0,.162.535Z" transform="translate(-150.669 -630.095)" fill="#b38e55"/>
        <path id="Path_2779" data-name="Path 2779" d="M185.269,628.156V623.14h.713v4.507h.56a.164.164,0,0,1,.124.038.176.176,0,0,1,.035.121v.185c0,.111-.053.166-.159.166Z" transform="translate(-167.606 -622.987)" fill="#b38e55"/>
        <path id="Path_2780" data-name="Path 2780" d="M190.213,636.306c-.059,0-.1-.015-.111-.044a.254.254,0,0,1-.022-.115v-.21a.181.181,0,0,1,.025-.1.123.123,0,0,1,.108-.038h.955V633.48h.719v2.826Zm.853.84a.359.359,0,0,1,.369-.369.362.362,0,0,1,.261.105.353.353,0,0,1,.108.264.346.346,0,0,1-.108.258.381.381,0,0,1-.525,0A.35.35,0,0,1,191.066,637.146Z" transform="translate(-171.397 -631.138)" fill="#b38e55"/>
        <path id="Path_2781" data-name="Path 2781" d="M208.98,633.48a1.626,1.626,0,0,1,.611.118,1.551,1.551,0,0,1,.515.337,1.618,1.618,0,0,1,.353.528,1.753,1.753,0,0,1,.131.691,2.075,2.075,0,0,1-.026.321c-.017.108-.038.215-.064.321h.63c.11,0,.165.053.165.159v.185a.146.146,0,0,1-.165.166h-3.3v.229a4.416,4.416,0,0,0,.035.6,1.165,1.165,0,0,0,.137.427.738.738,0,0,0,.287.277,1.676,1.676,0,0,0,.484.159.781.781,0,0,0-.019.108c0,.038-.008.074-.012.108a3.625,3.625,0,0,1-.56-.1,1.618,1.618,0,0,1-.522-.236,1.263,1.263,0,0,1-.385-.426,1.349,1.349,0,0,1-.15-.671V635.8h.789q-.006-.159-.012-.312t-.007-.3q0-.458.032-.882t.083-.824Zm.732,2.317a1.563,1.563,0,0,0,.127-.379,2.046,2.046,0,0,0,.038-.392,1.25,1.25,0,0,0-.086-.5.937.937,0,0,0-.216-.318.791.791,0,0,0-.277-.172.819.819,0,0,0-.267-.051h-.363q-.038.248-.06.5t-.022.522a5.541,5.541,0,0,0,.057.783Z" transform="translate(-184.83 -631.138)" fill="#b38e55"/>
        <path id="Path_2782" data-name="Path 2782" d="M226.334,624.488a2.945,2.945,0,0,1,.646.067,1.255,1.255,0,0,1,.509.236,1.12,1.12,0,0,1,.334.458,1.926,1.926,0,0,1,.121.735v.242a1.21,1.21,0,0,0,.137.624.519.519,0,0,0,.487.229h.318a.163.163,0,0,1,.124.038.174.174,0,0,1,.035.121v.185q0,.166-.159.166h-.159a.7.7,0,0,1-.538-.213,1.027,1.027,0,0,1-.258-.538.906.906,0,0,1-.248.551.938.938,0,0,1-.675.2h-2.069c-.068,0-.109-.017-.124-.051a.3.3,0,0,1-.022-.121v-.172a.228.228,0,0,1,.029-.118.128.128,0,0,1,.118-.048h1.979a.283.283,0,0,0,.245-.086.648.648,0,0,0,.061-.34V626a1.641,1.641,0,0,0-.048-.4.917.917,0,0,0-.153-.328.715.715,0,0,0-.277-.219.979.979,0,0,0-.414-.08h-.815v-.414l1.337-2.132.554.369Z" transform="translate(-198.761 -622.419)" fill="#b38e55"/>
        <path id="Path_2783" data-name="Path 2783" d="M243.052,636.306c-.059,0-.1-.015-.111-.044a.254.254,0,0,1-.022-.115v-.21a.183.183,0,0,1,.025-.1.123.123,0,0,1,.108-.038h.656q-.019-.324-.019-.63,0-.445.035-.869t.086-.818h.974a1.619,1.619,0,0,1,.615.118,1.525,1.525,0,0,1,.509.337,1.648,1.648,0,0,1,.35.528,1.757,1.757,0,0,1,.13.691,2.567,2.567,0,0,1-.07.586,3.387,3.387,0,0,1-.185.567Zm2.464-.509a1.68,1.68,0,0,0,.13-.379,1.878,1.878,0,0,0,.042-.392,1.207,1.207,0,0,0-.089-.5.976.976,0,0,0-.219-.318.79.79,0,0,0-.277-.172.818.818,0,0,0-.267-.051h-.363q-.032.248-.057.5t-.026.522a5.547,5.547,0,0,0,.057.783Z" transform="translate(-213.047 -631.138)" fill="#b38e55"/>
        <path id="Path_2784" data-name="Path 2784" d="M265.546,635.184a.8.8,0,0,1-.232-.194.936.936,0,0,1-.143-.245,1.294,1.294,0,0,1-.07-.232.905.905,0,0,1-.118.388.732.732,0,0,1-.219.229.72.72,0,0,1-.28.108,1.842,1.842,0,0,1-.306.026h-1.661v-.509h1.572q.2,0,.258-.1a.706.706,0,0,0,.054-.322v-.5a3.2,3.2,0,0,0-.035-.49,1.056,1.056,0,0,0-.13-.382.663.663,0,0,0-.264-.248.918.918,0,0,0-.43-.089h-.662v-.471h.815a1.711,1.711,0,0,1,.675.118,1.12,1.12,0,0,1,.439.325,1.257,1.257,0,0,1,.236.49,2.552,2.552,0,0,1,.07.614q0,.261.019.458a.957.957,0,0,0,.083.328.43.43,0,0,0,.191.2.727.727,0,0,0,.338.067h.318a.136.136,0,0,1,.165.159v.185a.146.146,0,0,1-.165.166H265.9A.7.7,0,0,1,265.546,635.184Z" transform="translate(-228.494 -630.095)" fill="#b38e55"/>
        <path id="Path_2785" data-name="Path 2785" d="M282.178,630.324a.174.174,0,0,1,.131.038.176.176,0,0,1,.035.121v.185a.146.146,0,0,1-.166.166h-3.959c-.059,0-.1-.015-.111-.044a.255.255,0,0,1-.022-.115v-.21a.181.181,0,0,1,.025-.1.123.123,0,0,1,.108-.038H280.9a2.016,2.016,0,0,1-.14-.423q-.051-.232-.089-.468t-.1-.474a1.419,1.419,0,0,0-.175-.41.858.858,0,0,0-.309-.286,1.05,1.05,0,0,0-.512-.108,2.183,2.183,0,0,0-.726.146,1.789,1.789,0,0,1-.054-.178q-.023-.089-.048-.178c.059-.025.127-.051.2-.076s.158-.049.245-.07a2.626,2.626,0,0,1,.27-.051,2.04,2.04,0,0,1,.274-.019,1.714,1.714,0,0,1,.843.178,1.327,1.327,0,0,1,.49.465,2.039,2.039,0,0,1,.252.646q.076.36.121.722c.013.1.025.2.038.3s.03.193.051.286Zm-2.762-3.418a.362.362,0,0,1,.105-.261.352.352,0,0,1,.264-.108.345.345,0,0,1,.258.108.377.377,0,0,1,0,.522.346.346,0,0,1-.258.108.352.352,0,0,1-.264-.108A.361.361,0,0,1,279.415,626.906Z" transform="translate(-240.766 -625.665)" fill="#b38e55"/>
        <path id="Path_2786" data-name="Path 2786" d="M296.343,630.834c-.059,0-.1-.015-.111-.044a.255.255,0,0,1-.022-.115v-.21a.183.183,0,0,1,.025-.1.123.123,0,0,1,.108-.038h.955v-2.317h.719v2.826Zm.961-3.927a.362.362,0,0,1,.105-.261.352.352,0,0,1,.264-.108.345.345,0,0,1,.258.108.377.377,0,0,1,0,.522.346.346,0,0,1-.258.108.352.352,0,0,1-.264-.108A.361.361,0,0,1,297.3,626.906Z" transform="translate(-255.053 -625.665)" fill="#b38e55"/>
        <path id="Path_2787" data-name="Path 2787" d="M314.8,630.834a2.465,2.465,0,0,1-.792-.105,1.192,1.192,0,0,1-.471-.277.891.891,0,0,1-.229-.385,1.548,1.548,0,0,1-.06-.423,1.462,1.462,0,0,1,.14-.621,2,2,0,0,1,.325-.506l.2.057a1.508,1.508,0,0,0-.172.36,1.363,1.363,0,0,0-.064.429,1.236,1.236,0,0,0,.042.3.758.758,0,0,0,.172.315.97.97,0,0,0,.372.248,1.75,1.75,0,0,0,.649.1h1.719q-.038-.159-.06-.318a2.314,2.314,0,0,1-.022-.325,1.753,1.753,0,0,1,.13-.691,1.616,1.616,0,0,1,.353-.528,1.562,1.562,0,0,1,.513-.337,1.6,1.6,0,0,1,.608-.118h.974q.05.395.086.818t.035.869q0,.267-.016.551t-.048.589Zm3.692-.509c.017-.136.03-.268.038-.4s.013-.258.013-.385q0-.268-.022-.522t-.061-.5h-.356a.818.818,0,0,0-.267.051.789.789,0,0,0-.277.172.973.973,0,0,0-.22.318,1.207,1.207,0,0,0-.089.5,2.014,2.014,0,0,0,.038.392,1.413,1.413,0,0,0,.133.379Zm-.669-3.418a.362.362,0,0,1,.105-.261.353.353,0,0,1,.264-.108.344.344,0,0,1,.258.108.376.376,0,0,1,0,.522.345.345,0,0,1-.258.108.353.353,0,0,1-.264-.108A.361.361,0,0,1,317.828,626.906Z" transform="translate(-268.486 -625.665)" fill="#b38e55"/>
        <path id="Path_2788" data-name="Path 2788" d="M347.08,627.647h.9a.33.33,0,0,0,.27-.092.6.6,0,0,0,.073-.354V623.14h.713v3.686a1.568,1.568,0,0,0,.032.328.757.757,0,0,0,.105.261.491.491,0,0,0,.191.172.644.644,0,0,0,.3.06h.286c.11,0,.166.053.166.159v.185a.146.146,0,0,1-.166.166h-.121a.7.7,0,0,1-.538-.213,1.065,1.065,0,0,1-.264-.538,1.145,1.145,0,0,1-.077.306.674.674,0,0,1-.162.239.707.707,0,0,1-.271.153,1.3,1.3,0,0,1-.4.054h-3.24v-.509h1.49v-3.285h.719Z" transform="translate(-293.409 -622.987)" fill="#b38e55"/>
        <path id="Path_2789" data-name="Path 2789" d="M367.344,630.834c-.064,0-.1-.015-.118-.044a.261.261,0,0,1-.022-.115v-.21a.167.167,0,0,1,.029-.1.133.133,0,0,1,.112-.038h.853q.2,0,.257-.092a.69.69,0,0,0,.061-.347v-1.878h.713v1.5a1.307,1.307,0,0,0,.1.538.462.462,0,0,0,.359.271c.03,0,.061.008.092.01s.065,0,.1,0h.306a.136.136,0,0,1,.166.159v.185a.146.146,0,0,1-.166.166h-.22a.357.357,0,0,1-.1-.013.716.716,0,0,1-.433-.251,1.036,1.036,0,0,1-.216-.487,1.148,1.148,0,0,1-.076.306.674.674,0,0,1-.162.239.712.712,0,0,1-.267.153,1.291,1.291,0,0,1-.4.054Zm.541-3.934a.35.35,0,0,1,.108-.255.355.355,0,0,1,.261-.108.366.366,0,0,1,.264.108.345.345,0,0,1,.111.255.359.359,0,0,1-.111.268.367.367,0,0,1-.264.108.356.356,0,0,1-.261-.108A.364.364,0,0,1,367.885,626.9Zm1.038,0a.349.349,0,0,1,.108-.255.368.368,0,0,1,.63.255.369.369,0,0,1-.105.268.372.372,0,0,1-.525,0A.363.363,0,0,1,368.923,626.9Z" transform="translate(-311.012 -625.665)" fill="#b38e55"/>
        <path id="Path_2790" data-name="Path 2790" d="M380.141,630.834c-.059,0-.1-.015-.111-.044a.255.255,0,0,1-.022-.115v-.21a.183.183,0,0,1,.025-.1.123.123,0,0,1,.108-.038h2.686a1.7,1.7,0,0,1-.13-.366q-.048-.2-.08-.4-.044-.261-.1-.512a1.53,1.53,0,0,0-.169-.449.9.9,0,0,0-.312-.318,1.02,1.02,0,0,0-.535-.121,2.184,2.184,0,0,0-.726.146,1.741,1.741,0,0,1-.054-.178c-.015-.059-.031-.119-.048-.178.06-.025.128-.051.2-.076s.158-.049.245-.07a2.624,2.624,0,0,1,.27-.051,2.044,2.044,0,0,1,.274-.019,2.008,2.008,0,0,1,.6.08,1.337,1.337,0,0,1,.43.22,1.222,1.222,0,0,1,.293.328,1.978,1.978,0,0,1,.188.407,3.124,3.124,0,0,1,.115.458q.041.239.073.48.038.312.092.6a2.5,2.5,0,0,0,.162.535Zm1.178-3.927a.362.362,0,0,1,.1-.261.353.353,0,0,1,.264-.108.345.345,0,0,1,.258.108.377.377,0,0,1,0,.522.346.346,0,0,1-.258.108.353.353,0,0,1-.264-.108A.361.361,0,0,1,381.319,626.906Z" transform="translate(-321.105 -625.665)" fill="#b38e55"/>
        <path id="Path_2791" data-name="Path 2791" d="M400.115,628.156v-.509H401.6v-3.285h.726v3.285h1.235V623.14h.719v5.016Z" transform="translate(-336.954 -622.987)" fill="#b38e55"/>
        <path id="Path_2792" data-name="Path 2792" d="M424.581,623.14h.713v5.016h-.713Z" transform="translate(-356.238 -622.987)" fill="#b38e55"/>
      </g>
    </g>
  </g>
</svg>
