<svg xmlns="http://www.w3.org/2000/svg" width="40.49" height="55" viewBox="0 0 40.49 55">
  <g id="Group_7110" data-name="Group 7110" transform="translate(-112.503 -62.844)">
    <path id="Path_2722" data-name="Path 2722" d="M290,147.781a2.853,2.853,0,0,1-.165.7,3.037,3.037,0,0,1-.324.64,3.533,3.533,0,0,1-2.351,1.517,3.5,3.5,0,0,1-1.439-.07,4.1,4.1,0,0,1-1.3-.593,4.423,4.423,0,0,1-.55-.453l-.064-.061-.062-.065-.121-.13-.114-.137-.056-.069-.053-.072a4.96,4.96,0,0,1-.924-2.611c-.013-.153-.015-.307-.013-.459,0-.077,0-.153,0-.23a6.2,6.2,0,0,1,.072-.681c.017-.113.041-.224.063-.335s.05-.221.082-.329c.056-.218.131-.43.207-.64a8.4,8.4,0,0,1,1.068-1.958q-.135.621-.321,1.231l0,.008c-.055.159-.106.319-.153.48-.039.13-.074.261-.106.392a6.732,6.732,0,0,0-.178,2.453,4.885,4.885,0,0,0,.107.6,4.677,4.677,0,0,0,.172.574,5.094,5.094,0,0,0,.241.543,4.143,4.143,0,0,0,.314.5,3.543,3.543,0,0,0,1.879,1.313,2.816,2.816,0,0,0,1.135.084,2.871,2.871,0,0,0,.558-.134,2.958,2.958,0,0,0,.525-.245,2.9,2.9,0,0,0,.86-.773,2.487,2.487,0,0,0,.454-1.055,1.813,1.813,0,0,0-.142-1.11,1.639,1.639,0,0,0-.813-.779,1.2,1.2,0,0,0-.561-.095,1.253,1.253,0,0,0-.557.175,1.381,1.381,0,0,0-.442.41,1.14,1.14,0,0,0-.193.581l-.064,0a1.2,1.2,0,0,1,.127-.66,1.5,1.5,0,0,1,1.81-.75,2,2,0,0,1,1.1.89,2.1,2.1,0,0,1,.257.684A2.47,2.47,0,0,1,290,147.781Z" transform="translate(-147.385 -68.42)" fill="#fff"/>
    <path id="Path_2723" data-name="Path 2723" d="M252.838,420.09a.111.111,0,0,0-.069-.08c-.086-.034-.206.022-.553.4a.89.89,0,0,0-.1.077c-.026.021-.061.05-.071.057a2.927,2.927,0,0,1-.257.149,3.776,3.776,0,0,1-.625.253,5.739,5.739,0,0,1-1.213.232,14.674,14.674,0,0,1-1.826.012c-.308-.011-.627-.022-.941-.023a6.13,6.13,0,0,0-2.657.474,5.151,5.151,0,0,0-2.125,1.887h0c-.02.032-.075.116-.012.171a.08.08,0,0,0,.043.019c.1.013.253-.11.3-.154a2.707,2.707,0,0,0,.536-.586c.016-.026.035-.052.056-.081a.96.96,0,0,0,.114-.078c.025-.019.05-.038.076-.054a3.435,3.435,0,0,1,.585-.288,5.1,5.1,0,0,1,1.141-.288,12.506,12.506,0,0,1,2.125-.046c.186.007.373.013.558.018a8.024,8.024,0,0,0,2.5-.254,4.888,4.888,0,0,0,2.163-1.426l.011-.011C252.79,420.279,252.856,420.171,252.838,420.09Z" transform="translate(-112.604 -309.715)" fill="#b38e55"/>
    <path id="Path_2724" data-name="Path 2724" d="M284.866,288.259c0-.057-.029-.421-.1-.21a10.878,10.878,0,0,0-.442,2.011,6.492,6.492,0,0,0-.039,2.137c.112.494.567.847,1.042.518.491-.339.516-1.12.546-1.652,0-.067.037-.433-.069-.4-.086.029-.108.429-.115.6,0-.124-.03.047-.075.12a.773.773,0,0,1-.125.154.692.692,0,0,1-.417.191.644.644,0,0,1-.639-.594,4.924,4.924,0,0,1,.333-2.123A2.49,2.49,0,0,0,284.866,288.259Z" transform="translate(-148.899 -195.233)" fill="#b38e55"/>
    <g id="Group_7097" data-name="Group 7097" transform="translate(122.151 75.957)">
      <path id="Path_2725" data-name="Path 2725" d="M186.634,210.173a1.106,1.106,0,0,0-.821.719,1.587,1.587,0,0,0-.1.531c0,.124.028.147.08.016a.978.978,0,0,1,.833-.533,1.349,1.349,0,0,1,1.006.4,2.981,2.981,0,0,1,.575,2.42c-.008.132.035.132.08.015a1.846,1.846,0,0,0,.1-.531,3.285,3.285,0,0,0-.612-2.655A1.314,1.314,0,0,0,186.634,210.173Z" transform="translate(-185.633 -203.698)" fill="#b38e55"/>
      <path id="Path_2726" data-name="Path 2726" d="M186.593,172.557a.063.063,0,0,0,.005-.049l-.008.013C186.591,172.532,186.592,172.544,186.593,172.557Z" transform="translate(-186.397 -171.054)" fill="#b38e55"/>
      <path id="Path_2727" data-name="Path 2727" d="M188.526,167.313a3.563,3.563,0,0,0-1.378-1.8,5.051,5.051,0,0,1-1.663-1.752,2.055,2.055,0,0,1-.154-.524c0-.02,0-.108,0-.174-.018.036-.059.051-.015-.014l.013-.022a.077.077,0,0,0-.011-.04.061.061,0,0,1,.018.027c.021-.039.039-.081.064-.118a1.358,1.358,0,0,1,.827-.552,1.325,1.325,0,0,1,1.6,1.251c0,.129.034.135.08.016a1.68,1.68,0,0,0,.1-.531,1.359,1.359,0,0,0-2.212-1.213,1.664,1.664,0,0,0-.557.961,2.7,2.7,0,0,0-.038,1.31,2.571,2.571,0,0,0,.582,1.054c.578.659,1.363,1.09,1.953,1.737a2.494,2.494,0,0,1,.668,1.329,3.978,3.978,0,0,1-.168,1.491c-.016.067-.117.424-.05.469s.111-.213.12-.249A5.672,5.672,0,0,0,188.526,167.313Z" transform="translate(-185.134 -161.56)" fill="#b38e55"/>
    </g>
    <g id="Group_7098" data-name="Group 7098" transform="translate(136.039 98.01)">
      <path id="Path_2728" data-name="Path 2728" d="M291.8,329.826a6.587,6.587,0,0,1,.071-1.1q.018-.1-.027.072c-.035.082-.062.162-.1.242a3.091,3.091,0,0,1-.448.659,2.771,2.771,0,0,1-1.3.823c-.122.036-.17.369-.184.435a6.637,6.637,0,0,0-.123,1.068c0,.108-.017,1.576.148,1.527,2.228-.666,2.515-3.263,2.443-5.238,0-.116-.084-1.142-.283-.56a6.072,6.072,0,0,0-.19,2.069Z" transform="translate(-289.68 -327.58)" fill="#fff"/>
    </g>
    <g id="Group_7099" data-name="Group 7099" transform="translate(134.621 98.35)">
      <path id="Path_2729" data-name="Path 2729" d="M281.146,331.151c.03-.226-.04.127-.066.194a2.737,2.737,0,0,1-.277.5,2.507,2.507,0,0,1-.832.819c-.2.107-.286.053-.475,0l-.039-.076.049.559a1.507,1.507,0,0,0,0-.37l-.014-1.553c0-.108.022-1.266-.224-1.073-.134.1-.155.56-.172.689a8.175,8.175,0,0,0-.084,1.166c.007.81-.006,1.624.022,2.434.014.388,0,1.537.681,1.3a2.579,2.579,0,0,0,1.122-1.066,4.9,4.9,0,0,0,.625-1.978,6.066,6.066,0,0,0,.027-2.078c-.134-.58-.323.4-.34.527Z" transform="translate(-279.007 -330.132)" fill="#fff"/>
    </g>
    <path id="Path_2730" data-name="Path 2730" d="M210.929,67.426a5.481,5.481,0,0,0-3.5-4.187,6.247,6.247,0,0,0-5.241.4,8.359,8.359,0,0,0-3.589,4.325,10.729,10.729,0,0,0-.445,1.5,6.71,6.71,0,0,0-.112,2.143c.008.082.021.446.137.452s.177-.4.184-.435a8.081,8.081,0,0,1,2.98-4.512,6.291,6.291,0,0,1,5.19-1.068,5.246,5.246,0,0,1,3.907,3.464,4.859,4.859,0,0,1,.161.718c.005.039.019.172.024.221,0,.017,0,.051,0,.077a.011.011,0,0,0,0,.005c-.011-.119-.02-.008-.005.043-.005.037-.01.073-.011.083,0,.027-.006.044-.008.055-.009.052-.019.1-.029.156-.03.149-.061.3-.1.446a16,16,0,0,1-1.126,3.065,31.037,31.037,0,0,1-2.533,4.275,7.214,7.214,0,0,0,.633.737c.15.156.3.307.46.456.472-.762.913-1.542,1.31-2.348.294-.6.565-1.216.8-1.85q.114-.3.216-.605.081-.239.153-.48l0-.008q.184-.609.321-1.231t.222-1.247A14.536,14.536,0,0,0,210.929,67.426Z" transform="translate(-74.139 0)" fill="#fff"/>
    <g id="Group_7100" data-name="Group 7100" transform="translate(121.759 71.45)">
      <path id="Path_2731" data-name="Path 2731" d="M183.366,324.636c-.007-.121-.006-.068-.007-.189,0-.048.007-.465,0-.232,0-.113.037-1.146-.222-.586a3.476,3.476,0,0,0-.19.534,4.913,4.913,0,0,0,.461.9C183.388,324.923,183.375,324.78,183.366,324.636Z" transform="translate(-182.842 -297.449)" fill="#fff"/>
      <path id="Path_2732" data-name="Path 2732" d="M204.855,152.569a14.661,14.661,0,0,0-1.553-6.493,17.022,17.022,0,0,0-4.394-5.16,56.052,56.052,0,0,1-5.379-4.651c-4.136-4.482-2.537-7.471-2.537-8.171,0-.082.026-.446-.089-.464a.065.065,0,0,0-.051.018c-.032-.006-.074.039-.13.165a19.619,19.619,0,0,0-1.555,6.894,16.068,16.068,0,0,0,.28,4.061c.3-.412.6-.829.92-1.258l.067-.091a12.057,12.057,0,0,1-.567-2.524,10.768,10.768,0,0,1-.074-1.514c0-.054,0-.109,0-.163V133.2c.008-.13.018-.26.027-.39,0-.028.006-.055.009-.083,0,.015.014-.1.022-.167-.013.126.009-.071.018-.114s.021-.1.031-.155c.028-.14,0-.088-.011-.025a3.139,3.139,0,0,1,.1-.336l.01-.038h0a9.563,9.563,0,0,0,.821,4.054,15.316,15.316,0,0,0,4.185,5.176c1.763,1.506,3.675,2.846,5.3,4.509a13.658,13.658,0,0,1,3.329,5.577,13.144,13.144,0,0,1,.55,3.092c.012.2.015.4.013.627,0,.1,0,.2-.006.3,0,.031,0,.076,0,.09-.005.077-.011.154-.016.231l0,.03-.014.126s0,.017,0,.034l0,.023c0,.005-.007.043-.012.082l-.007.032q-.015.07-.029.141l0,.012c-.012.042-.075.283-.065.254q-.049.169-.1.336c-.075.23-.141.408-.237.64a10.1,10.1,0,0,1-.651,1.312,11.637,11.637,0,0,1-1.859,2.348,11.43,11.43,0,0,1-11,3,10.954,10.954,0,0,1-5.981-4.586,4.935,4.935,0,0,1-1.989-1.1l-.032-.031a10.213,10.213,0,0,0,1.333,3.791,11.291,11.291,0,0,0,4.3,4.135,11.026,11.026,0,0,0,11.52-1.045,12.03,12.03,0,0,0,3.942-4.672A18.081,18.081,0,0,0,204.855,152.569Zm-.732,3.359s.005-.033.012-.068A.626.626,0,0,1,204.123,155.928Zm.014-.057a.251.251,0,0,1,.005-.048l.008-.039A.416.416,0,0,1,204.137,155.871Zm.013-.088-.006.029.009-.055Z" transform="translate(-182.18 -127.63)" fill="#fff"/>
      <path id="Path_2733" data-name="Path 2733" d="M307.64,339.4c.011.084.017.153.019.185,0,.1.007.194.009.292a1.575,1.575,0,0,0,.081.14C307.758,339.633,307.7,339.446,307.64,339.4Z" transform="translate(-290.974 -311.266)" fill="#fff"/>
      <path id="Path_2734" data-name="Path 2734" d="M254.322,239.753l-.011-.02c-.16-.324-.094-.526-.016-.456-.04-.314-.141-.836-.264-.375-.374,1.4-.74,4.669,1.515,4.719a2.871,2.871,0,0,0,2.546-1.984,1.7,1.7,0,0,0,.232-.575c.05-.144.1-.287.135-.426a5.756,5.756,0,0,0,.2-1.382,9.244,9.244,0,0,0-.087-2.918,8.461,8.461,0,0,0-1.281-2.946,20.594,20.594,0,0,0-4.833-4.664,23.015,23.015,0,0,1-5.015-4.718l-.047-.069-.386.526c-.292.4-.588.8-.883,1.207a15.133,15.133,0,0,0,3.448,4.117c1.794,1.554,3.814,2.852,5.51,4.518a11.412,11.412,0,0,1,2.25,3.024q.139.279.258.568a1.936,1.936,0,0,1-1.116,2.556l-.021.007a1.889,1.889,0,0,1-1.446-.038,1.475,1.475,0,0,1-.532-.432c-.025-.032-.047-.067-.069-.1a7.234,7.234,0,0,1-.28,1.637A6.6,6.6,0,0,0,254.322,239.753Z" transform="translate(-237.629 -211.146)" fill="#fff"/>
    </g>
    <path id="Path_2735" data-name="Path 2735" d="M204.468,313.022V313C204.463,312.863,204.467,312.974,204.468,313.022Z" transform="translate(-79.746 -216.87)" fill="#132d46"/>
    <g id="Group_7102" data-name="Group 7102" transform="translate(121.088 81.713)">
      <g id="Group_7101" data-name="Group 7101" transform="translate(3.151 0)">
        <path id="Path_2736" data-name="Path 2736" d="M201.35,314.331s0-.119-.007-.215c-.158.143-.317.284-.478.423,0,.015,0,.03,0,.045-.01.439-.007.881.014,1.323a4.258,4.258,0,0,0,.812.278,8.976,8.976,0,0,1-.269-1.21C201.389,314.774,201.357,314.453,201.35,314.331Z" transform="translate(-200.858 -299.607)" fill="#fff"/>
        <path id="Path_2737" data-name="Path 2737" d="M224.48,209.872c.861-1.224,1.765-2.425,2.645-3.64A11.9,11.9,0,0,1,226,204.893c-1.012,1.373-2.018,2.75-2.915,4.2q-.212.342-.413.689A6.108,6.108,0,0,1,224.48,209.872Z" transform="translate(-219.773 -204.893)" fill="#fff"/>
        <path id="Path_2738" data-name="Path 2738" d="M219.33,330.354c-.017-.074-.061-.3-.167-.162-1.334,1.742-2.919,3.729-5.3,3.841a3.512,3.512,0,0,1-.789-.051,7.134,7.134,0,0,1-2.581.559,6.15,6.15,0,0,1-.664-.025,4.706,4.706,0,0,0,2.61,2.381c2.205.716,4.281-.859,5.633-2.44.371-.433.717-.886,1.064-1.338a1.818,1.818,0,0,0,.172-.689,8.38,8.38,0,0,0,.084-1.166A4.048,4.048,0,0,0,219.33,330.354Z" transform="translate(-208.633 -313.509)" fill="#fff"/>
      </g>
      <path id="Path_2739" data-name="Path 2739" d="M189.014,302.918a8.444,8.444,0,0,1-.084,1.166,2.074,2.074,0,0,1-.172.689,10.533,10.533,0,0,1-2.481,2.962,6.168,6.168,0,0,1-6.633.991,4.693,4.693,0,0,1-2.064-2.261c-.028-.064-.053-.128-.076-.194-.014-.032-.026-.066-.037-.1a6.413,6.413,0,0,1-.333-2q.135-.305.285-.6l.022-.044.029-.058q.1-.2.216-.4c.006.023.011.046.018.069a3.816,3.816,0,0,0,.315.759,4.444,4.444,0,0,0,.4.616c.036.048.075.095.113.141a4.183,4.183,0,0,0,.631.618,5.076,5.076,0,0,0,3.6.98c2.688-.237,4.734-2.171,6.036-4.407.093-.159.154.105.167.163A4.017,4.017,0,0,1,189.014,302.918Z" transform="translate(-177.134 -288.922)" fill="#fff"/>
    </g>
    <path id="Path_2740" data-name="Path 2740" d="M257.494,119.171a3.877,3.877,0,0,0-.464-.954,1.857,1.857,0,0,0-.774-.755c-.141-.046-.532.982-.456,1.007a1.644,1.644,0,0,1,.667.608,3.644,3.644,0,0,1,.55,1.049,5.134,5.134,0,0,1,.145,2.41c-.034.219.158-.1.178-.137a2.205,2.205,0,0,0,.287-.7A5.374,5.374,0,0,0,257.494,119.171Z" transform="translate(-124.253 -47.361)" fill="#b38e55"/>
    <path id="Path_2741" data-name="Path 2741" d="M160.85,285.41a.9.9,0,0,1,.888-.055,1.294,1.294,0,0,1,.365.248c.073.071.068.1-.037.055a.8.8,0,0,0-.788.17,1.1,1.1,0,0,0-.351.81,2.43,2.43,0,0,0,1.057,1.73c.08.071.055.1-.037.055a1.5,1.5,0,0,1-.365-.248,2.677,2.677,0,0,1-1.171-1.887A1.071,1.071,0,0,1,160.85,285.41Z" transform="translate(-41.544 -192.874)" fill="#b38e55"/>
    <path id="Path_2742" data-name="Path 2742" d="M359.068,374.173c-.005-.057-.009-.049,0,.157,0-.033,0-.069,0-.1,0-.016,0-.031,0-.043C359.064,374.22,359.065,374.208,359.068,374.173Z" transform="translate(-213.808 -269.947)" fill="#b38e55"/>
    <path id="Path_2743" data-name="Path 2743" d="M192.977,262.469c0-.117-.084-1.142-.282-.56a6.14,6.14,0,0,0-.19,2.069c0,.043,0,.086,0,.128,0,.058-.011.162-.017.215,0,0,0,.006,0,.009,0-.025.008-.072.018-.149-.007.061-.013.127-.015.193,0,.026,0,.055,0,.084v0c0,.071,0,.136-.017.134h0c0,.035-.01.069-.014.1s-.039.232-.039.239v0c-.038.2-.078.4-.124.6-.005.016-.054.2-.061.229-.031.114-.065.228-.1.341q-.1.337-.225.668a11.359,11.359,0,0,1-.539,1.225,12.706,12.706,0,0,1-3.516,4.265,12.727,12.727,0,0,1-19.257-4.536,10.566,10.566,0,0,1-1.09-4c-.171-3.523,2.212-6.928,4.967-8.911a12.7,12.7,0,0,1,5.507-2.252,13.393,13.393,0,0,1,1.47-.135c.272-.011.3-1.321.306-1.5,0-.008,0-.022,0-.039q.007-.112.009-.223c.008-.215.013-.523,0-.78a1.074,1.074,0,0,0-.049-.345c-.024-.085-.056-.137-.1-.14a7.189,7.189,0,0,0-5.382-1.927,10.037,10.037,0,0,0-3.219,1.124c-1.074.426-2.744.547-3.189-.821-.064-.2-.186.153-.183.143a3.973,3.973,0,0,0-.152.9,4.888,4.888,0,0,0,.062,1.872c.423,1.3,1.942,1.41,3.048,1.031s2.083-1.111,3.29-1.209a6.368,6.368,0,0,1,.971,0c-.284-.02-.87.423-1.117.563q-.567.321-1.1.7a12.81,12.81,0,0,0-4.768,6.4,15.986,15.986,0,0,0-.687,2.869,20.837,20.837,0,0,0-.215,3.8,16.662,16.662,0,0,0,.217,2.156q.032.195.071.389c.09.462.2.92.337,1.371q.092.307.2.609a13.016,13.016,0,0,0,7.638,7.786,12.87,12.87,0,0,0,11.739-1.475,13.043,13.043,0,0,0,3.928-4.31,15.876,15.876,0,0,0,1.832-6.754C192.992,263.9,193,263.181,192.977,262.469Z" transform="translate(-47.231 -160.095)" fill="#fff"/>
    <path id="Path_2744" data-name="Path 2744" d="M170.721,364.531v-.006S170.721,364.529,170.721,364.531Z" transform="translate(-50.484 -261.605)" fill="#b38e55"/>
    <path id="Path_2745" data-name="Path 2745" d="M170.779,362.881a.284.284,0,0,0,.018-.112.682.682,0,0,1-.018.108Z" transform="translate(-50.535 -260.084)" fill="#b38e55"/>
    <g id="Group_7103" data-name="Group 7103" transform="translate(112.503 67.587)">
      <path id="Path_2746" data-name="Path 2746" d="M121.034,143.154h-7.62V99.462H123.1a5.174,5.174,0,0,1,.355-.91H112.5v45.513h9.146Q121.324,143.622,121.034,143.154Z" transform="translate(-112.503 -98.552)" fill="#b38e55"/>
      <path id="Path_2747" data-name="Path 2747" d="M304.613,98.552a6.729,6.729,0,0,1,.066.91h13.994v43.692h-7.748q-.289.466-.616.91h9.275V98.552Z" transform="translate(-279.094 -98.552)" fill="#b38e55"/>
    </g>
    <path id="Path_2748" data-name="Path 2748" d="M359.08,375.41v0c0,.024-.008.058-.011.085h0Z" transform="translate(-213.813 -271.044)" fill="#b38e55"/>
    <g id="Group_7104" data-name="Group 7104" transform="translate(127.324 93.034)">
      <path id="Path_2749" data-name="Path 2749" d="M227.5,293.811a5.649,5.649,0,0,0-1.8.376,7.3,7.3,0,0,0-1.625.909,1.358,1.358,0,0,1,.2-.379,2.686,2.686,0,0,1,.325-.367,3.968,3.968,0,0,1,.416-.343,5.545,5.545,0,0,1,.474-.306,1.185,1.185,0,0,1-.358-.006,1.552,1.552,0,0,1-.389-.11.9.9,0,0,1-.306-.211.424.424,0,0,1-.116-.315,2.028,2.028,0,0,1,.147-.667,3.928,3.928,0,0,1,.343-.67,4.45,4.45,0,0,1,.474-.618,4.344,4.344,0,0,1,.548-.508,2.978,2.978,0,0,1,.557-.346,1.2,1.2,0,0,1,.5-.129.439.439,0,0,1,.324.129.8.8,0,0,1,.184.422q-.1.227-.193.45t-.181.444a1.451,1.451,0,0,0-.257-.11.908.908,0,0,0-.276-.043,1.068,1.068,0,0,0-.45.113,2.854,2.854,0,0,0-.554.364.84.84,0,0,0,.184.4.686.686,0,0,0,.419.184,3.526,3.526,0,0,0,.784,0q.493-.043,1.282-.159Z" transform="translate(-224.072 -290.12)" fill="#b38e55"/>
    </g>
  </g>
</svg>
