<svg xmlns="http://www.w3.org/2000/svg" width="29.999" height="29.999" viewBox="0 0 29.999 29.999">
  <g id="twitter" transform="translate(-176 -2286)">
    <rect id="Rectangle_70" data-name="Rectangle 70" width="29.999" height="29.999" transform="translate(176 2286)" fill="#b38e55"/>
    <g id="Group_7113" data-name="Group 7113" transform="translate(176 2286)">
      <path id="Path_1421" data-name="Path 1421" d="M44.444,150.812a9.326,9.326,0,0,0,14.347-8.281,6.647,6.647,0,0,0,1.635-1.7,6.54,6.54,0,0,1-1.883.516,3.284,3.284,0,0,0,1.442-1.814,6.579,6.579,0,0,1-2.082.8,3.282,3.282,0,0,0-5.588,2.991,9.306,9.306,0,0,1-6.759-3.426,3.283,3.283,0,0,0,1.014,4.378,3.269,3.269,0,0,1-1.486-.411,3.284,3.284,0,0,0,2.63,3.258,3.283,3.283,0,0,1-1.48.055,3.28,3.28,0,0,0,3.063,2.278A6.594,6.594,0,0,1,44.444,150.812Z" transform="translate(-37.435 -130.791)" fill="#fff"/>
    </g>
  </g>
</svg>
