<svg xmlns="http://www.w3.org/2000/svg" xmlns:xlink="http://www.w3.org/1999/xlink" width="30" height="30" viewBox="0 0 30 30">
  <defs>
    <clipPath id="clip-path">
      <rect id="Rectangle_9484" data-name="Rectangle 9484" width="30" height="30" transform="translate(0 -0.054)" fill="#fff"/>
    </clipPath>
  </defs>
  <g id="Group_7119" data-name="Group 7119" transform="translate(-217 -16.032)">
    <g id="Rectangle_9483" data-name="Rectangle 9483" transform="translate(217 16.032)" fill="#fff" stroke="#b38e55" stroke-width="1">
      <rect width="30" height="30" stroke="none"/>
      <rect x="0.5" y="0.5" width="29" height="29" fill="none"/>
    </g>
    <g id="Mask_Group_1" data-name="Mask Group 1" transform="translate(217 16.086)" clip-path="url(#clip-path)">
      <g id="Path_2805" data-name="Path 2805" transform="translate(26.908 29.946) rotate(180)" fill="#132d46">
        <path d="M 11.90426540374756 24.50606155395508 C 8.346545219421387 24.50606155395508 5.452135562896729 21.58949089050293 5.452135562896729 18.00455093383789 C 5.452135562896729 14.41960048675537 8.346545219421387 11.50303077697754 11.90426540374756 11.50303077697754 C 15.46198558807373 11.50303077697754 18.35639572143555 14.41960048675537 18.35639572143555 18.00455093383789 C 18.35639572143555 21.58949089050293 15.46198558807373 24.50606155395508 11.90426540374756 24.50606155395508 Z M 11.90426540374756 9.502270698547363 C 10.14419555664062 9.502270698547363 7.090025424957275 9.098811149597168 4.274975299835205 7.961750984191895 C 1.151165366172791 6.699960708618164 -0.4999946057796478 4.984480857849121 -0.4999946057796478 3.000750780105591 L -0.4999946057796478 7.769775152155489e-07 L -0.4999946057796478 -0.4999992251396179 L 5.403747763921274e-06 -0.4999992251396179 L 23.80853462219238 -0.4999992251396179 L 24.30853462219238 -0.4999992251396179 L 24.30853462219238 7.769775152155489e-07 L 24.30853462219238 3.000750780105591 C 24.30853462219238 4.984480857849121 22.65737533569336 6.699960708618164 19.53355598449707 7.961750984191895 C 18.34222602844238 8.442951202392578 16.95955467224121 8.842340469360352 15.53501510620117 9.116741180419922 C 14.24434566497803 9.365350723266602 12.95492553710938 9.502270698547363 11.90426540374756 9.502270698547363 Z" stroke="none"/>
        <path d="M -3.814697265625e-06 0 L -3.814697265625e-06 3.000751495361328 C -3.814697265625e-06 6.99176025390625 7.931215286254883 9.002270698547363 11.90426540374756 9.002270698547363 C 15.87731552124023 9.002270698547363 23.80852508544922 6.99176025390625 23.80852508544922 3.000751495361328 L 23.80852508544922 0 L -3.814697265625e-06 0 M 11.90426540374756 12.00303077697754 C 8.615705490112305 12.00303077697754 5.95213508605957 14.68871116638184 5.95213508605957 18.00455093383789 C 5.95213508605957 21.32038116455078 8.615705490112305 24.00606155395508 11.90426540374756 24.00606155395508 C 15.19281578063965 24.00606155395508 17.85639572143555 21.32038116455078 17.85639572143555 18.00455093383789 C 17.85639572143555 14.68871116638184 15.19281578063965 12.00303077697754 11.90426540374756 12.00303077697754 M -1.000003814697266 -1 L 24.80852508544922 -1 L 24.80852508544922 3.000751495361328 C 24.80852508544922 5.205131530761719 23.04922485351562 7.080930709838867 19.72081565856934 8.425360679626465 C 17.34923553466797 9.383291244506836 14.28105545043945 10.00227069854736 11.90426540374756 10.00227069854736 C 9.527475357055664 10.00227069854736 6.459295272827148 9.383291244506836 4.087715148925781 8.425360679626465 C 0.7592945098876953 7.080930709838867 -1.000003814697266 5.205131530761719 -1.000003814697266 3.000751495361328 L -1.000003814697266 -1 Z M 11.90426540374756 11.00303077697754 C 15.73768520355225 11.00303077697754 18.85639572143555 14.14390087127686 18.85639572143555 18.00455093383789 C 18.85639572143555 21.86520004272461 15.73768520355225 25.00606155395508 11.90426540374756 25.00606155395508 C 8.070845603942871 25.00606155395508 4.95213508605957 21.86520004272461 4.95213508605957 18.00455093383789 C 4.95213508605957 14.14390087127686 8.070845603942871 11.00303077697754 11.90426540374756 11.00303077697754 Z" stroke="none" fill="#fff"/>
      </g>
    </g>
  </g>
</svg>
