<svg xmlns="http://www.w3.org/2000/svg" width="29.999" height="29.999" viewBox="0 0 29.999 29.999">
  <g id="Youtube" transform="translate(-252 -2286)">
    <rect id="Youtube-2" data-name="Youtube" width="29.999" height="29.999" transform="translate(252 2286)" fill="#b38e55"/>
    <g id="Group_28" data-name="Group 28" transform="translate(257.531 2294.329)">
      <path id="Subtraction_1" data-name="Subtraction 1" d="M-2507.062-2267.988a56.524,56.524,0,0,1-7.4-.4,2.38,2.38,0,0,1-1.675-1.685,25.132,25.132,0,0,1-.4-4.587,25.139,25.139,0,0,1,.4-4.588,2.378,2.378,0,0,1,1.675-1.685,56.385,56.385,0,0,1,7.4-.4,56.414,56.414,0,0,1,7.4.4,2.379,2.379,0,0,1,1.674,1.685,25.123,25.123,0,0,1,.4,4.588,25.117,25.117,0,0,1-.4,4.587,2.382,2.382,0,0,1-1.674,1.685A56.553,56.553,0,0,1-2507.062-2267.988Zm-1.937-9.486h0v5.631l4.949-2.815-4.949-2.816Z" transform="translate(2516.531 2281.329)" fill="#fff" stroke="rgba(0,0,0,0)" stroke-miterlimit="10" stroke-width="1"/>
    </g>
  </g>
</svg>
