<?xml version="1.0" standalone="no"?>
<!DOCTYPE svg PUBLIC "-//W3C//DTD SVG 1.1//EN" "http://www.w3.org/Graphics/SVG/1.1/DTD/svg11.dtd" >
<svg xmlns="http://www.w3.org/2000/svg">
<metadata>Generated by IcoMoon</metadata>
<defs>
<font id="icomoon" horiz-adv-x="1024">
<font-face units-per-em="1024" ascent="960" descent="-64" />
<missing-glyph horiz-adv-x="1024" />
<glyph unicode="&#x20;" horiz-adv-x="512" d="" />
<glyph unicode="&#xe94e;" glyph-name="local_parking_black_24dp" d="M554.667 797.867h-264.533v-704h106.667v256h157.867c123.733 0 221.867 98.133 221.867 221.867s-98.133 226.133-221.867 226.133zM563.2 456.533h-170.667v238.933h170.667c64 0 119.467-55.467 119.467-119.467s-55.467-119.467-119.467-119.467z" />
<glyph unicode="&#xe94f;" glyph-name="uniE901" d="M972.992 150.336c-1.344-4.544-2.624-9.024-4.032-13.504-11.26-34.528-42.754-59.212-80.146-60.158l-0.11-0.002c-20.416-0.384-40.832 0-61.184 0h-685.376c-1.412-0.082-3.064-0.129-4.727-0.129-41.912 0-76.859 29.82-84.781 69.401l-0.092 0.552c-1.060 5.393-1.666 11.595-1.666 17.938 0 0.219 0.001 0.437 0.002 0.655v-0.033c0 46.336 0 92.672 0 139.008 0 0.011 0 0.024 0 0.037 0 17.133 13.464 31.121 30.389 31.96l0.075 0.003c47.026 1.075 84.736 39.451 84.736 86.635 0 0.075 0 0.15 0 0.225v-0.012c-0.379 46.848-37.875 84.814-84.502 85.95l-0.106 0.002c-17.057 0.775-30.592 14.791-30.592 31.969 0 0.011 0 0.022 0 0.033v-0.002c0 46.208 0 92.416 0 138.624-0.024 0.754-0.037 1.64-0.037 2.53 0 47.647 38.625 86.272 86.272 86.272 0.846 0 1.689-0.012 2.528-0.036l-0.123 0.003q372.224 0 744.384 0c0.788 0.026 1.714 0.041 2.644 0.041 42.113 0 77.158-30.264 84.571-70.23l0.082-0.53c0.417-1.173 0.935-2.188 1.567-3.12l-0.031 0.048v-163.84c-5.47-13.139-18.206-22.208-33.060-22.208-0.753 0-1.5 0.023-2.241 0.069l0.102-0.005c-44.826-3.141-80-40.276-80-85.626 0-0.092 0-0.184 0-0.276v0.014c0-0.078 0-0.17 0-0.262 0-45.35 35.174-82.485 79.729-85.611l0.271-0.015c0.627 0.039 1.36 0.062 2.098 0.062 14.865 0 27.612-9.066 33.015-21.97l0.088-0.236zM108.992 280.896c0-40.704-0.384-80.896 0-121.024 1.135-14.101 12.649-25.171 26.839-25.599l0.041-0.001c4.8 0 9.6 0 14.4 0h731.712c1.236-0.184 2.662-0.289 4.113-0.289 16.259 0 29.44 13.181 29.44 29.44 0 1.411-0.099 2.799-0.291 4.157l0.018-0.156c0 16.832 0 33.6 0 50.432v62.656c-64.921 14.383-113.095 70.492-115.195 138.208l-0.005 0.224c-0.024 0.978-0.038 2.129-0.038 3.283 0 30.494 9.598 58.746 25.938 81.9l-0.3-0.448c20.864 30.199 52.186 51.893 88.636 59.918l0.964 0.178c0 40.704 0.448 80.896 0 121.088-1.2 14.448-13.222 25.72-27.877 25.72-0.911 0-1.811-0.044-2.7-0.129l0.113 0.009h-745.536c-0.571 0.040-1.237 0.063-1.908 0.063-15.87 0-28.736-12.866-28.736-28.736 0-0.608 0.019-1.211 0.056-1.809l-0.004 0.082c0-16.832 0-33.6 0-50.432v-65.408c66.394-14.77 115.296-73.164 115.296-142.98 0-1.867-0.035-3.725-0.104-5.575l0.008 0.267c-3.543-66.546-51.207-121.012-114.106-134.861l-0.966-0.179zM863.168 57.216h-721.024c-1.504-0.077-3.265-0.121-5.036-0.121-51.101 0-93.699 36.408-103.269 84.699l-0.111 0.669c-1.303 6.522-2.049 14.021-2.049 21.694 0 0.203 0.001 0.406 0.002 0.61v-0.031c0 43.2 0 87.040 0 129.472v9.664c-0.001 0.142-0.002 0.31-0.002 0.477 0 27.423 21.749 49.766 48.939 50.72l0.087 0.002c36.708 0.754 66.176 30.689 66.176 67.507 0 0.027 0 0.054 0 0.082v-0.004c-0.418 36.464-29.65 65.965-65.968 66.815l-0.080 0.001c-27.382 1.13-49.152 23.602-49.152 51.159 0 0.014 0 0.029 0 0.043v-0.002 14.272c0 40.768 0 83.2 0 124.416-0.015 0.654-0.023 1.425-0.023 2.198 0 58.392 47.336 105.728 105.728 105.728 0.751 0 1.499-0.008 2.246-0.023l-0.112 0.002q372.224 0 744.448 0c0.953 0.031 2.073 0.049 3.198 0.049 50.179 0 92.094-35.386 102.152-82.565l0.122-0.684 0.32-0.64 2.176-4.224v-172.8l-1.6-3.648c-8.504-19.949-27.948-33.68-50.598-33.68-0.459 0-0.917 0.006-1.373 0.017l0.068-0.001c-34.607-2.612-61.697-31.333-61.697-66.382 0-0.108 0-0.215 0.001-0.322v0.017c0-0.054 0-0.118 0-0.182 0-35.097 27.112-63.861 61.534-66.492l0.226-0.014c0.376 0.009 0.819 0.015 1.263 0.015 22.662 0 42.117-13.728 50.504-33.321l0.136-0.358 1.6-3.648v-170.688l-2.112-7.040c-0.96-3.136-1.856-6.4-2.88-9.472-13.628-42.338-52.239-72.616-98.062-73.598l-0.114-0.002c-7.424-0.384-15.68-0.384-25.664-0.384zM827.456 95.616h35.712c9.792 0 17.728 0 25.088 0 29.082 0.918 53.467 20.039 62.198 46.306l0.138 0.478c0.896 2.88 1.792 5.824 2.624 8.768l0.512 1.792v156.544c-2.816 4.608-6.912 6.976-16.96 7.488-54.993 3.926-98.134 49.452-98.24 105.077v0.011c0.076 55.634 43.24 101.162 97.906 105.005l0.334 0.019c10.048 0.448 14.144 2.816 16.96 7.488v154.752c-0.408 0.979-0.782 2.155-1.059 3.367l-0.029 0.153c-5.56 31.871-33.018 55.79-66.062 55.79-0.873 0-1.742-0.017-2.606-0.050l0.125 0.004q-372.224 0-744.384 0c-0.641 0.022-1.394 0.034-2.15 0.034-37.22 0-67.392-30.172-67.392-67.392 0-0.8 0.014-1.596 0.042-2.389l-0.003 0.115c0-41.408 0-83.52 0-124.288v-14.272c0-0.007 0-0.015 0-0.023 0-6.799 5.301-12.36 11.996-12.775l0.036-0.002c57.017-1.492 102.723-47.848 103.168-104.981v-0.043c0.001-0.123 0.001-0.268 0.001-0.413 0-57.515-45.924-104.303-103.103-105.696l-0.13-0.002c-6.673-0.482-11.904-6.015-11.904-12.769 0-0.011 0-0.022 0-0.033v0.002-9.664c0-42.368 0-86.208 0-129.28-0.001-0.13-0.001-0.285-0.001-0.439 0-5.118 0.49-10.121 1.424-14.966l-0.079 0.493c6.232-31.298 33.479-54.559 66.159-54.559 1.627 0 3.242 0.058 4.84 0.171l-0.215-0.012h684.8zM142.144 114.816c-2.816 0-5.12 0-7.36 0-24.219 0.999-43.623 20.292-44.796 44.372l-0.004 0.108c-0.448 28.992-0.384 58.496 0 86.976q0 17.088 0 34.368v15.232l14.848 3.456c55.493 12.176 96.944 59.403 100.209 116.848l0.015 0.336c0.036 1.14 0.057 2.48 0.057 3.825 0 61.26-43.035 112.469-100.523 125.044l-0.847 0.155-14.528 3.648v95.424c0 11.84 0 23.68 0 35.456-0.019 0.51-0.031 1.108-0.031 1.709 0 26.368 21.376 47.744 47.744 47.744 0.731 0 1.458-0.016 2.181-0.049l-0.103 0.004h745.536c0.873 0.058 1.892 0.091 2.918 0.091 25.172 0 45.701-19.88 46.743-44.797l0.003-0.094c0.512-28.864 0.448-58.24 0.32-86.656q0-17.344 0-34.752v-15.232l-14.784-3.456c-32.76-6.94-60.211-25.863-78.125-51.865l-0.275-0.423c-13.767-19.508-22.004-43.776-22.004-69.967 0-1.255 0.019-2.506 0.056-3.751l-0.004 0.182c1.827-59.235 44.097-108.090 100.036-119.981l0.828-0.147 14.4-3.712v-92.864q0-17.536 0-35.072c0.123-1.29 0.193-2.789 0.193-4.305 0-26.616-21.576-48.192-48.192-48.192-1.578 0-3.138 0.076-4.676 0.224l0.196-0.015h-740.032zM128.064 266.24q0-9.984 0-19.904c0-28.352 0-57.6 0-86.272 0-3.136 4.416-6.4 8.832-6.72 2.944 0 5.952 0 8.896 0h736c11.584 0 14.080 2.496 14.080 13.952s0 23.36 0 35.008v64c-65.821 21.267-112.997 81.036-115.194 152.132l-0.006 0.252c-0.032 1.206-0.051 2.627-0.051 4.051 0 34.392 10.748 66.274 29.068 92.47l-0.346-0.522c20.62 30.097 50.386 52.61 85.249 63.684l1.151 0.316q0 10.176 0 20.288c0 28.224 0 57.6 0 85.824 0 4.416-5.888 6.784-11.264 6.784h-745.216c-7.808 0-11.328-3.52-11.392-11.328 0-11.712 0-23.424 0-35.072v-66.176c67.415-21.784 115.319-83.989 115.319-157.384 0-2.203-0.043-4.396-0.129-6.578l0.010 0.314c-3.426-70.035-50.199-128.293-113.909-148.734l-1.163-0.322zM425.728 191.744h-0.512c-10.911 4.177-18.517 14.563-18.517 26.725 0 3.596 0.665 7.037 1.879 10.207l-0.066-0.196 152.896 407.68c4.183 10.9 14.563 18.496 26.717 18.496 3.575 0 6.997-0.657 10.151-1.858l-0.196 0.066h0.512c10.94-4.162 18.573-14.563 18.573-26.746 0-3.588-0.662-7.022-1.871-10.186l0.066 0.196-152.704-407.296c-4.068-11.123-14.56-18.918-26.872-18.918-3.613 0-7.070 0.671-10.251 1.896l0.195-0.066zM435.904 170.688c-0.021 0-0.046 0-0.071 0-5.975 0-11.692 1.103-16.958 3.117l0.326-0.109h-0.512c-11.959 4.539-21.399 13.417-26.566 24.665l-0.122 0.295c-2.714 5.79-4.298 12.574-4.298 19.727 0 6.044 1.131 11.824 3.192 17.14l-0.11-0.324 152.704 407.296c7.043 18.248 24.435 30.96 44.798 30.976h0.002c5.977-0.001 11.697-1.104 16.966-3.117l-0.326 0.109h0.576c11.975-4.511 21.435-13.368 26.63-24.602l0.122-0.294c2.736-5.811 4.333-12.621 4.333-19.804 0-6.015-1.12-11.769-3.163-17.064l0.11 0.324-152.768-407.296c-7.030-18.293-24.456-31.040-44.86-31.040-0.002 0-0.003 0-0.005 0v0zM588.096 635.264c-3.987-0.014-7.389-2.506-8.746-6.016l-0.022-0.064-152.704-407.296c-0.447-1.050-0.707-2.27-0.707-3.552s0.26-2.502 0.73-3.613l-0.023 0.061c1.031-2.244 2.863-3.972 5.121-4.842l0.063-0.022h0.512c0.957-0.365 2.063-0.576 3.219-0.576 0.016 0 0.032 0 0.048 0h-0.002c3.987 0.014 7.389 2.506 8.746 6.016l0.022 0.064 152.704 407.296c0.455 1.058 0.72 2.29 0.72 3.584s-0.265 2.526-0.743 3.645l0.023-0.061c-1.045 2.255-2.901 3.986-5.184 4.843l-0.064 0.021h-0.576c-0.903 0.325-1.945 0.513-3.031 0.513-0.037 0-0.074 0-0.111-0.001h0.006zM374.784 412.736c-47.382 0.577-85.57 39.122-85.57 86.586 0 0.182 0.001 0.364 0.002 0.546v-0.028c0.827 47.399 39.445 85.505 86.964 85.505 0.162 0 0.324 0 0.485-0.001h-0.025c47.235-0.539 85.319-38.955 85.319-86.267 0-0.384-0.003-0.768-0.008-1.151l0.001 0.058c-0.357-47.163-38.673-85.258-85.886-85.258-0.451 0-0.901 0.003-1.35 0.010l0.068-0.001zM375.424 470.336c0.191-0.005 0.415-0.007 0.641-0.007 15.558 0 28.183 12.56 28.287 28.093v0.010c0.005 0.191 0.007 0.415 0.007 0.64 0 15.87-12.866 28.736-28.736 28.736-0.003 0-0.005 0-0.008 0v0c-15.728-0.35-28.386-13.008-28.735-28.703l-0.001-0.033c0.142-15.733 12.822-28.457 28.524-28.672h0.020zM673.408 406.528c0.076 0 0.166 0 0.256 0 47.682 0 86.336-38.654 86.336-86.336s-38.654-86.336-86.336-86.336c-47.682 0-86.336 38.654-86.336 86.336v0c0.144 47.534 38.566 86.046 86.052 86.336h0.028zM644.928 320c0.077-15.812 12.913-28.601 28.736-28.601 15.87 0 28.736 12.866 28.736 28.736s-12.866 28.736-28.736 28.736c-0.225 0-0.449-0.003-0.673-0.008l0.033 0.001c-15.536-0.069-28.103-12.679-28.103-28.224 0-0.225 0.003-0.45 0.008-0.674l-0.001 0.033z" />
<glyph unicode="&#xe950;" glyph-name="bed" d="M107.374 555.301h106.496c-6.796 0.029-12.837 3.239-16.714 8.217l-0.036 0.048c-2.8 3.646-4.486 8.273-4.486 13.295 0 1.823 0.222 3.594 0.641 5.288l-0.032-0.151 13.239 53.541c6.981 28.227 32.046 48.84 61.942 48.933h137.080c35.319-0.248 63.854-28.937 63.854-64.291 0-0.103 0-0.207-0.001-0.31v0.016-42.642c0-0.022 0-0.048 0-0.074 0-11.785-9.512-21.347-21.277-21.43h127.773c-11.773 0.083-21.285 9.646-21.285 21.43 0 0.026 0 0.052 0 0.078v-0.004 43.081c0 0.087-0.001 0.191-0.001 0.294 0 35.354 28.536 64.043 63.831 64.291h137.167c29.906-0.092 54.971-20.706 61.86-48.493l0.092-0.44 13.239-53.541c0.387-1.543 0.61-3.314 0.61-5.137 0-5.022-1.687-9.649-4.525-13.347l0.038 0.052c-3.913-5.026-9.953-8.236-16.745-8.265h106.491c11.773 0.083 21.285 9.646 21.285 21.43 0 0.026 0 0.052 0 0.078v-0.004 128.878c0 0.109 0.001 0.239 0.001 0.368 0 58.963-47.592 106.811-106.457 107.225h-638.869c-58.905-0.414-106.497-48.262-106.497-107.225 0-0.129 0-0.259 0.001-0.388v0.020-128.878c-0.004-0.153-0.006-0.332-0.006-0.512 0-11.787 9.515-21.351 21.283-21.43h0.008zM917.358 512.366h-810.715c-58.977-0.373-106.643-48.269-106.643-107.299 0-0.104 0-0.207 0-0.311v0.016-301.349c-0.023-0.373-0.037-0.81-0.037-1.249 0-11.796 9.562-21.358 21.358-21.358s21.358 9.562 21.358 21.358c0 0.44-0.013 0.876-0.039 1.309l0.003-0.059v64.585h938.715v-64.585c-0.023-0.373-0.037-0.81-0.037-1.249 0-11.796 9.562-21.358 21.358-21.358s21.358 9.562 21.358 21.358c0 0.44-0.013 0.876-0.039 1.309l0.003-0.059v301.349c0 0.087 0 0.191 0 0.295 0 59.029-47.666 106.925-106.607 107.298h-0.036zM981.358 211.017h-938.715v43.081h938.715v-43.081z" />
<glyph unicode="&#xe951;" glyph-name="calendar_today_black_24dp2" d="M853.333 832h-42.667v85.333h-85.333v-85.333h-426.667v85.333h-85.333v-85.333h-42.667c-46.933 0-85.333-38.4-85.333-85.333v-682.667c0-46.933 38.4-85.333 85.333-85.333h682.667c46.933 0 85.333 38.4 85.333 85.333v682.667c0 46.933-38.4 85.333-85.333 85.333zM853.333 64h-682.667v469.333h682.667v-469.333zM853.333 618.667h-682.667v128h682.667v-128z" />
<glyph unicode="&#xe952;" glyph-name="call_black_24dp2" d="M279.040 746.667c2.56-37.973 8.96-75.093 19.2-110.507l-51.2-51.2c-17.493 51.2-28.587 105.387-32.427 161.707h64.427zM699.733 233.813c36.267-10.24 73.387-16.64 110.933-19.2v-63.573c-56.32 3.84-110.507 14.933-162.133 32l51.2 50.773zM320 832h-149.333c-23.467 0-42.667-19.2-42.667-42.667 0-400.64 324.693-725.333 725.333-725.333 23.467 0 42.667 19.2 42.667 42.667v148.907c0 23.467-19.2 42.667-42.667 42.667-52.907 0-104.533 8.533-152.32 24.32-4.267 1.707-8.96 2.133-13.227 2.133-11.093 0-21.76-4.267-30.293-12.373l-93.867-93.867c-120.747 61.867-219.733 160.427-281.173 281.173l93.867 93.867c11.947 11.947 15.36 28.587 10.667 43.52-15.787 47.787-24.32 98.987-24.32 152.32 0 23.467-19.2 42.667-42.667 42.667z" />
<glyph unicode="&#xe953;" glyph-name="check_black_24dp" d="M384 270.080l-177.92 177.92-60.587-60.16 238.507-238.507 512 512-60.16 60.16-451.84-451.413z" />
<glyph unicode="&#xe954;" glyph-name="check_circle_black_24dp" d="M512 874.642c-235.628 0-426.642-191.014-426.642-426.642s191.014-426.642 426.642-426.642c235.628 0 426.642 191.014 426.642 426.642v0c-0.083 235.594-191.047 426.559-426.634 426.642h-0.009zM512 106.642c-188.527 0-341.358 152.831-341.358 341.358s152.831 341.358 341.358 341.358c188.527 0 341.358-152.831 341.358-341.358v0c-0.249-188.426-152.932-341.108-341.334-341.358h-0.024zM707.803 636.562l-281.088-281.234-110.519 109.714-60.123-60.123 170.642-170.277 341.358 341.358z" />
<glyph unicode="&#xe955;" glyph-name="check_circle_outline_black_24dp1" d="M512 874.662c-235.634-0.007-426.65-191.028-426.65-426.662 0-235.639 191.023-426.662 426.662-426.662s426.662 191.023 426.662 426.662v0c-0.087 235.608-191.066 426.582-426.667 426.662h-0.008zM512 106.662c-188.516 0-341.338 152.822-341.338 341.338s152.822 341.338 341.338 341.338c188.516 0 341.338-152.822 341.338-341.338v0c-0.24-188.419-152.919-341.098-341.315-341.338h-0.023zM677.555 606.285l-250.88-250.88-80.218 80.218c-7.698 7.698-18.333 12.46-30.080 12.46-23.494 0-42.54-19.046-42.54-42.54 0-11.747 4.761-22.382 12.46-30.080l110.502-110.502c7.693-7.709 18.33-12.478 30.080-12.478s22.387 4.769 30.079 12.477l281.179 281.166c7.709 7.693 12.478 18.33 12.478 30.080s-4.769 22.387-12.477 30.079l-0.001 0.001c-7.771 7.712-18.474 12.477-30.291 12.477s-22.52-4.766-30.294-12.48l0.003 0.003z" />
<glyph unicode="&#xe956;" glyph-name="chevron_left_black_24dp1" d="M657.493 643.84l-60.16 60.16-256-256 256-256 60.16 60.16-195.413 195.84 195.413 195.84z" />
<glyph unicode="&#xe957;" glyph-name="chevron_right_black_24dp" d="M426.667 704l-60.16-60.16 195.413-195.84-195.413-195.84 60.16-60.16 256 256-256 256z" />
<glyph unicode="&#xe958;" glyph-name="clear_black_24dp" d="M810.667 686.507l-60.16 60.16-238.507-238.507-238.507 238.507-60.16-60.16 238.507-238.507-238.507-238.507 60.16-60.16 238.507 238.507 238.507-238.507 60.16 60.16-238.507 238.507 238.507 238.507z" />
<glyph unicode="&#xe959;" glyph-name="email_black_24dp-3" d="M938.667 704c0 46.933-38.4 85.333-85.333 85.333h-682.667c-46.933 0-85.333-38.4-85.333-85.333v-512c0-46.933 38.4-85.333 85.333-85.333h682.667c46.933 0 85.333 38.4 85.333 85.333v512zM853.333 704l-341.333-213.333-341.333 213.333h682.667zM853.333 192h-682.667v426.667l341.333-213.333 341.333 213.333v-426.667z" />
<glyph unicode="&#xe95a;" glyph-name="expand_less_black_24dp1" d="M512 618.667l-256-256 60.16-60.16 195.84 195.413 195.84-195.413 60.16 60.16-256 256z" />
<glyph unicode="&#xe95b;" glyph-name="person_black_24dp2" d="M512 704c46.933 0 85.333-38.4 85.333-85.333s-38.4-85.333-85.333-85.333-85.333 38.4-85.333 85.333 38.4 85.333 85.333 85.333zM512 277.333c115.2 0 247.467-55.040 256-85.333h-512c9.813 30.72 141.227 85.333 256 85.333zM512 789.333c-94.293 0-170.667-76.373-170.667-170.667s76.373-170.667 170.667-170.667 170.667 76.373 170.667 170.667-76.373 170.667-170.667 170.667zM512 362.667c-113.92 0-341.333-57.173-341.333-170.667v-85.333h682.667v85.333c0 113.493-227.413 170.667-341.333 170.667z" />
<glyph unicode="&#xe95c;" glyph-name="place_black_24dp1" d="M512 448c-46.933 0-85.333 38.4-85.333 85.333s38.4 85.333 85.333 85.333 85.333-38.4 85.333-85.333-38.4-85.333-85.333-85.333zM768 524.8c0 154.88-113.067 264.533-256 264.533s-256-109.653-256-264.533c0-99.84 83.2-232.107 256-389.973 172.8 157.867 256 290.133 256 389.973zM512 874.667c179.2 0 341.333-137.387 341.333-349.867 0-141.653-113.92-309.333-341.333-503.467-227.413 194.133-341.333 361.813-341.333 503.467 0 212.48 162.133 349.867 341.333 349.867z" />
<glyph unicode="&#xe95d;" glyph-name="remove_black_24dp1" d="M810.667 405.333h-597.333v85.333h597.333z" />
<glyph unicode="&#xe95e;" glyph-name="room_service_black_24dp1" d="M809.813 234.667h-724.48v-85.333h853.333v85.333zM896 277.333c-12.214 173.609-137.998 314.634-302.973 349.843l-2.52 0.45c4.28 9.951 6.786 21.531 6.827 33.691v0.015c0 47.128-38.205 85.333-85.333 85.333s-85.333-38.205-85.333-85.333v0c0.040-12.176 2.547-23.756 7.045-34.281l-0.218 0.574c-167.495-35.66-293.28-176.684-305.424-349.075l-0.069-1.219zM512 551.253c125.095-0.059 232.2-77.017 276.614-186.162l0.719-1.998h-554.667c45.133 111.143 152.239 188.101 277.326 188.16h0.008z" />
<glyph unicode="&#xe95f;" glyph-name="search_black_24dp1" d="M661.333 362.667h-33.707l-11.947 11.52c41.813 48.64 66.987 111.787 66.987 180.48 0 153.173-124.16 277.333-277.333 277.333s-277.333-124.16-277.333-277.333 124.16-277.333 277.333-277.333c68.693 0 131.84 25.173 180.48 66.987l11.52-11.947v-33.707l213.333-212.907 63.573 63.573-212.907 213.333zM405.333 362.667c-106.24 0-192 85.76-192 192s85.76 192 192 192 192-85.76 192-192-85.76-192-192-192z" />
<glyph unicode="&#xe960;" glyph-name="shower_black_24dp" d="M384 234.667c0-23.564-19.103-42.667-42.667-42.667s-42.667 19.103-42.667 42.667c0 23.564 19.103 42.667 42.667 42.667v0c23.564 0 42.667-19.103 42.667-42.667v0zM512 277.333c-23.564 0-42.667-19.103-42.667-42.667s19.103-42.667 42.667-42.667c23.564 0 42.667 19.103 42.667 42.667v0c0 23.564-19.103 42.667-42.667 42.667v0zM682.667 277.333c-23.564 0-42.667-19.103-42.667-42.667s19.103-42.667 42.667-42.667c23.564 0 42.667 19.103 42.667 42.667v0c0 23.564-19.103 42.667-42.667 42.667v0zM810.667 448v-85.333h-597.333v85.333c0.181 149.75 110.544 273.669 254.367 295.054l1.633 0.2v88.747h85.333v-88.747c145.456-21.585 255.819-145.504 256-295.234v-0.019zM725.333 448c0 117.821-95.513 213.333-213.333 213.333s-213.333-95.513-213.333-213.333v0zM341.333 149.333c-23.564 0-42.667-19.103-42.667-42.667s19.103-42.667 42.667-42.667c23.564 0 42.667 19.103 42.667 42.667v0c0 23.564-19.103 42.667-42.667 42.667v0zM512 149.333c-23.564 0-42.667-19.103-42.667-42.667s19.103-42.667 42.667-42.667c23.564 0 42.667 19.103 42.667 42.667v0c0 23.564-19.103 42.667-42.667 42.667v0zM682.667 149.333c-23.564 0-42.667-19.103-42.667-42.667s19.103-42.667 42.667-42.667c23.564 0 42.667 19.103 42.667 42.667v0c0 23.564-19.103 42.667-42.667 42.667v0z" />
<glyph unicode="&#xe961;" glyph-name="star" d="M512 925.867l158.242-320.853 353.758-51.337-256-249.378 60.416-352.256-316.416 166.366-316.416-166.366 60.416 352.256-256 249.378 353.758 51.337z" />
<glyph unicode="&#xe962;" glyph-name="visibility_black_24dp1" d="M512 704c161.707 0 305.92-90.88 376.32-234.667-70.4-143.787-214.613-234.667-376.32-234.667s-305.92 90.88-376.32 234.667c70.4 143.787 214.613 234.667 376.32 234.667zM512 789.333c-213.333 0-395.52-132.693-469.333-320 73.813-187.307 256-320 469.333-320s395.52 132.693 469.333 320c-73.813 187.307-256 320-469.333 320zM512 576c58.88 0 106.667-47.787 106.667-106.667s-47.787-106.667-106.667-106.667-106.667 47.787-106.667 106.667 47.787 106.667 106.667 106.667zM512 661.333c-105.813 0-192-86.187-192-192s86.187-192 192-192 192 86.187 192 192-86.187 192-192 192z" />
<glyph unicode="&#xe963;" glyph-name="visibility_off_black_24dp1" d="M512 704c161.707 0 305.92-90.88 376.32-234.667-25.173-52.053-60.587-96.853-102.827-133.12l60.16-60.16c59.307 52.48 106.24 118.187 135.68 193.28-73.813 187.307-256 320-469.333 320-54.187 0-106.24-8.533-155.307-24.32l70.4-70.4c27.733 5.547 55.893 9.387 84.907 9.387zM466.347 655.36l88.32-88.32c24.32-10.667 43.947-30.293 54.613-54.613l88.32-88.32c3.413 14.507 5.973 29.867 5.973 45.653 0.427 105.813-85.76 191.573-191.573 191.573-15.787 0-30.72-2.133-45.653-5.973zM85.76 794.88l114.347-114.347c-69.547-54.613-124.587-127.147-157.44-211.2 73.813-187.307 256-320 469.333-320 64.853 0 127.147 12.373 184.32 34.987l145.92-145.92 60.16 60.16-756.48 756.907-60.16-60.587zM405.76 474.88l111.36-111.36c-1.707-0.427-3.413-0.853-5.12-0.853-58.88 0-106.667 47.787-106.667 106.667 0 2.133 0.427 3.413 0.427 5.547zM260.693 619.947l74.667-74.667c-9.813-23.467-15.36-49.067-15.36-75.947 0-105.813 86.187-192 192-192 26.88 0 52.48 5.547 75.52 15.36l41.813-41.813c-37.547-10.24-76.8-16.213-117.333-16.213-161.707 0-305.92 90.88-376.32 234.667 29.867 61.013 73.387 111.36 125.013 150.613z" />
<glyph unicode="&#xe964;" glyph-name="wifi_black_24dp1" d="M42.667 576l85.333-85.333c98.28 98.263 234.042 159.039 384 159.039s285.721-60.776 384.001-159.040l-0.001 0.001 85.333 85.333c-120.158 120.014-286.078 194.234-469.333 194.234s-349.175-74.22-469.34-194.24l0.007 0.007zM384 234.667l128-128 128 128c-32.731 32.816-77.995 53.119-128 53.119s-95.269-20.303-127.996-53.116l-0.004-0.004zM213.333 405.333l85.333-85.333c54.61 54.567 130.031 88.314 213.333 88.314s158.723-33.747 213.335-88.316l-0.002 0.002 85.333 85.333c-76.485 76.328-182.064 123.526-298.667 123.526s-222.182-47.199-298.674-123.534l0.007 0.007z" />
<glyph unicode="&#xe965;" glyph-name="XMLID_95" horiz-adv-x="1029" d="M325.888 320.427q-6.571-0.597-13.141-0.597c-12.472 0.12-24.518 1.7-36.050 4.576l1.063-0.224-263.509-263.509c-5.999-5.993-9.71-14.275-9.71-23.424s3.711-17.431 9.709-23.424v0l68.267-68.267c5.989-5.973 14.254-9.667 23.381-9.667s17.393 3.694 23.382 9.668l316.671 316.586-58.709 63.317zM1019.307 742.571c-5.726 5.712-13.629 9.244-22.357 9.244s-16.631-3.532-22.358-9.245l-170.666-170.666c-7.476-7.487-17.811-12.119-29.227-12.119-22.811 0-41.303 18.492-41.303 41.303 0 11.395 4.614 21.712 12.076 29.184v0l169.899 169.899c5.962 5.962 9.65 14.198 9.65 23.296 0 18.195-14.75 32.946-32.946 32.946-9.098 0-17.334-3.688-23.296-9.65l-169.813-169.899c-7.476-7.487-17.811-12.119-29.227-12.119-22.811 0-41.303 18.492-41.303 41.303 0 11.395 4.614 21.712 12.076 29.184v0l170.667 170.667c5.733 5.733 9.278 13.652 9.278 22.4 0 17.495-14.183 31.678-31.678 31.678-8.748 0-16.667-3.546-22.4-9.278l-192.085-192.085c-31.889-32.094-51.598-76.321-51.598-125.153 0-15.966 2.107-31.44 6.058-46.158l-0.284 1.242 128.768-128.768c13.457-3.656 28.907-5.757 44.849-5.757 48.865 0 93.12 19.737 125.228 51.674l192.077 192.077c5.712 5.726 9.244 13.629 9.244 22.357 0 8.77-3.566 16.708-9.328 22.441l-0.001 0.001zM86.357 933.376c-6.296 6.275-14.983 10.155-24.576 10.155-0.030 0-0.060 0-0.090 0h0.005c-2.058-0.012-4.065-0.197-6.016-0.543l0.213 0.031c-11.348-1.951-20.677-9.168-25.509-18.995l-0.091-0.205c-19.105-38.618-30.283-84.084-30.283-132.161 0-83.82 33.976-159.705 88.907-214.633l163.413-163.413c15.452-15.499 36.823-25.088 60.434-25.088 0.024 0 0.047 0 0.071 0h-0.004q3.584 0 7.253 0l94.891 8.107 413.696-446.293c6.265-6.444 14.982-10.474 24.641-10.581h0.617c0.019 0 0.042 0 0.065 0 9.626 0 18.347 3.878 24.684 10.157l70.824 70.824c6.28 6.31 10.162 15.011 10.162 24.619s-3.882 18.309-10.164 24.62l0.001-0.001z" />
<glyph unicode="&#xe966;" glyph-name="ac_unit_black_24dp1" d="M938.667 490.667h-177.92l138.24 138.24-60.16 60.587-198.827-198.827h-85.333v85.333l198.827 198.827-60.587 60.16-138.24-138.24v177.92h-85.333v-177.92l-138.24 138.24-60.587-60.16 198.827-198.827v-85.333h-85.333l-198.827 198.827-60.16-60.587 138.24-138.24h-177.92v-85.333h177.92l-138.24-138.24 60.16-60.587 198.827 198.827h85.333v-85.333l-198.827-198.827 60.587-60.16 138.24 138.24v-177.92h85.333v177.92l138.24-138.24 60.587 60.16-198.827 198.827v85.333h85.333l198.827-198.827 60.16 60.587-138.24 138.24h177.92z" />
<glyph unicode="&#xe967;" glyph-name="add_black_24dp1" d="M810.667 405.333h-256v-256h-85.333v256h-256v85.333h256v256h85.333v-256h256z" />
<glyph unicode="&#xe968;" glyph-name="arrow_back_black_24dp1" d="M853.333 490.667h-519.253l238.507 238.507-60.587 60.16-341.333-341.333 341.333-341.333 60.16 60.16-238.080 238.507h519.253v85.333z" />
<glyph unicode="&#xe969;" glyph-name="arrow_drop_down_black_24dp1" d="M298.667 533.333l213.333-213.333 213.333 213.333h-426.667z" />
<glyph unicode="&#xe96a;" glyph-name="balcony" d="M1019.246 185.49c0 24.884-20.172 45.056-45.056 45.056v0h-23.333c-0.321 16.106-7.957 30.365-19.712 39.633l-0.11 0.084c8.609 0.252 15.493 7.292 15.493 15.939 0 6.583-3.99 12.235-9.683 14.669l-0.104 0.040c36.571 18.139 37.669 66.487 20.553 119.077l-33.573 109.714h6.802c0.058-0.001 0.126-0.001 0.194-0.001 8.806 0 15.945 7.139 15.945 15.945 0 7.605-5.324 13.967-12.449 15.561l-0.106 0.020c12.299 10.15 20.079 25.396 20.079 42.458 0 19.927-10.611 37.376-26.49 47.004l-0.244 0.138h46.592c24.090 1.001 43.241 20.774 43.241 45.019s-19.151 44.018-43.151 45.016l-0.090 0.003h-924.306c-24.090-1.001-43.241-20.774-43.241-45.019s19.151-44.018 43.151-45.016l0.090-0.003h46.592c-16.124-9.766-26.735-27.215-26.735-47.142 0-17.063 7.78-32.308 19.985-42.383l0.093-0.075c-7.231-1.614-12.555-7.975-12.555-15.581 0-8.806 7.139-15.945 15.945-15.945 0.068 0 0.136 0 0.204 0.001h6.792l-33.573-109.714c-17.115-52.517-16.091-100.864 20.553-119.077-5.8-2.472-9.792-8.125-9.792-14.71 0-8.623 6.845-15.647 15.398-15.936l0.026-0.001c-11.753-9.4-19.284-23.654-19.529-39.676v-0.040h-23.406c-24.884 0-45.056-20.172-45.056-45.056v0l-4.681-37.815h1024zM279.991 300.91c-5.8-2.472-9.792-8.125-9.792-14.71 0-8.623 6.845-15.647 15.398-15.936l0.026-0.001c-11.865-9.351-19.501-23.61-19.821-39.664l-0.001-0.052h-89.307c-0.321 16.106-7.957 30.365-19.712 39.633l-0.11 0.084c8.609 0.252 15.493 7.292 15.493 15.939 0 6.583-3.99 12.235-9.683 14.669l-0.104 0.040c36.571 18.139 37.669 66.487 20.553 119.077l-33.573 109.714h6.802c0.058-0.001 0.126-0.001 0.194-0.001 8.806 0 15.945 7.139 15.945 15.945 0 7.605-5.324 13.967-12.449 15.561l-0.106 0.020c12.299 10.15 20.079 25.396 20.079 42.458 0 19.927-10.611 37.376-26.49 47.004l-0.244 0.138h136.265c-16.124-9.766-26.735-27.215-26.735-47.142 0-17.063 7.78-32.308 19.985-42.383l0.093-0.075c-7.231-1.614-12.555-7.975-12.555-15.581 0-8.806 7.139-15.945 15.945-15.945 0.068 0 0.136 0 0.204 0.001h6.792l-33.573-109.714c-17.189-52.59-16.165-100.937 20.48-119.077zM472.942 300.91c-5.8-2.472-9.792-8.125-9.792-14.71 0-8.623 6.845-15.647 15.398-15.936l0.026-0.001c-11.865-9.351-19.501-23.61-19.821-39.664l-0.001-0.052h-89.307c-0.321 16.106-7.957 30.365-19.712 39.633l-0.11 0.084c8.609 0.252 15.493 7.292 15.493 15.939 0 6.583-3.99 12.235-9.683 14.669l-0.104 0.040c36.571 18.139 37.669 66.487 20.553 119.077l-33.573 109.714h6.802c0.058-0.001 0.126-0.001 0.194-0.001 8.806 0 15.945 7.139 15.945 15.945 0 7.605-5.324 13.967-12.449 15.561l-0.106 0.020c12.299 10.15 20.079 25.396 20.079 42.458 0 19.927-10.611 37.376-26.49 47.004l-0.244 0.138h136.265c-16.312-9.725-27.069-27.277-27.069-47.34 0-17.115 7.827-32.402 20.098-42.476l0.096-0.076c-7.231-1.614-12.555-7.975-12.555-15.581 0-8.806 7.139-15.945 15.945-15.945 0.068 0 0.136 0 0.204 0.001h6.792l-33.573-109.714c-16.969-52.297-15.872-100.645 20.699-118.784zM665.893 300.91c-5.8-2.472-9.792-8.125-9.792-14.71 0-8.623 6.845-15.647 15.398-15.936l0.026-0.001c-11.865-9.351-19.501-23.61-19.821-39.664l-0.001-0.052h-89.307c-0.321 16.106-7.957 30.365-19.712 39.633l-0.11 0.084c8.609 0.252 15.493 7.292 15.493 15.939 0 6.583-3.99 12.235-9.683 14.669l-0.104 0.040c36.571 18.139 37.669 66.487 20.553 119.077l-33.573 109.714h6.802c0.058-0.001 0.126-0.001 0.194-0.001 8.806 0 15.945 7.139 15.945 15.945 0 7.605-5.324 13.967-12.449 15.561l-0.106 0.020c12.299 10.15 20.079 25.396 20.079 42.458 0 19.927-10.611 37.376-26.49 47.004l-0.244 0.138h136.265c-16.124-9.766-26.735-27.215-26.735-47.142 0-17.063 7.78-32.308 19.985-42.383l0.093-0.075c-7.231-1.614-12.555-7.975-12.555-15.581 0-8.806 7.139-15.945 15.945-15.945 0.068 0 0.136 0 0.204 0.001h6.792l-33.573-109.714c-17.115-52.59-16.384-100.937 20.187-119.077zM861.623 300.91c-5.8-2.472-9.792-8.125-9.792-14.71 0-8.623 6.845-15.647 15.398-15.936l0.026-0.001c-11.865-9.351-19.501-23.61-19.821-39.664l-0.001-0.052h-92.16c-0.321 16.106-7.957 30.365-19.712 39.633l-0.11 0.084c8.609 0.252 15.493 7.292 15.493 15.939 0 6.583-3.99 12.235-9.683 14.669l-0.104 0.040c36.571 18.139 37.669 66.487 20.553 119.077l-33.573 109.714h6.802c0.058-0.001 0.126-0.001 0.194-0.001 8.806 0 15.945 7.139 15.945 15.945 0 7.605-5.324 13.967-12.449 15.561l-0.106 0.020c12.299 10.15 20.079 25.396 20.079 42.458 0 19.927-10.611 37.376-26.49 47.004l-0.244 0.138h138.971c-16.124-9.766-26.735-27.215-26.735-47.142 0-17.063 7.78-32.308 19.985-42.383l0.093-0.075c-7.231-1.614-12.555-7.975-12.555-15.581 0-8.806 7.139-15.945 15.945-15.945 0.068 0 0.136 0 0.204 0.001h6.792l-33.573-109.714c-16.969-52.59-15.945-100.937 20.699-119.077z" />
<glyph unicode="&#xe96b;" glyph-name="expand_more_black_24dp1" d="M707.84 593.493l-195.84-195.413-195.84 195.413-60.16-60.16 256-256 256 256-60.16 60.16z" />
<glyph unicode="&#xe96c;" glyph-name="favorite_black_24dp" d="M512 49.067l-61.867 56.32c-219.733 199.253-364.8 330.667-364.8 491.947 0 131.413 103.253 234.667 234.667 234.667 74.24 0 145.493-34.56 192-89.173 46.507 54.613 117.76 89.173 192 89.173 131.413 0 234.667-103.253 234.667-234.667 0-161.28-145.067-292.693-364.8-492.373l-61.867-55.893z" />
<glyph unicode="&#xe96d;" glyph-name="filter_alt_black_24dp1" d="M298.667 704h426.667l-213.76-268.8-212.907 268.8zM181.333 720.64c86.187-110.507 245.333-315.307 245.333-315.307v-256c0-23.467 19.2-42.667 42.667-42.667h85.333c23.467 0 42.667 19.2 42.667 42.667v256c0 0 158.72 204.8 244.907 315.307 21.76 28.16 1.707 68.693-33.707 68.693h-593.493c-35.413 0-55.467-40.533-33.707-68.693z" />
<glyph unicode="&#xe96e;" glyph-name="lock_black_24dp1" d="M768 618.667h-42.667v85.333c0 117.76-95.573 213.333-213.333 213.333s-213.333-95.573-213.333-213.333v-85.333h-42.667c-46.933 0-85.333-38.4-85.333-85.333v-426.667c0-46.933 38.4-85.333 85.333-85.333h512c46.933 0 85.333 38.4 85.333 85.333v426.667c0 46.933-38.4 85.333-85.333 85.333zM384 704c0 70.827 57.173 128 128 128s128-57.173 128-128v-85.333h-256v85.333zM768 106.667h-512v426.667h512v-426.667zM512 234.667c46.933 0 85.333 38.4 85.333 85.333s-38.4 85.333-85.333 85.333-85.333-38.4-85.333-85.333 38.4-85.333 85.333-85.333z" />
<glyph unicode="&#xe96f;" glyph-name="menu_black_24dp1" d="M128 192h768v85.333h-768v-85.333zM128 405.333h768v85.333h-768v-85.333zM128 704v-85.333h768v85.333h-768z" />
<glyph unicode="&#xe970;" glyph-name="calendar_today_black_24dp1" d="M853.312 832h-42.688v85.312h-85.312v-85.312h-426.688v85.312h-85.312v-85.312h-42.688c-47.080-0.145-85.203-38.29-85.312-85.366v-682.634c0.145-47.058 38.254-85.167 85.298-85.312h682.702c47.058 0.145 85.167 38.254 85.312 85.298v682.638c-0.109 47.086-38.232 85.231-85.298 85.376h-0.014zM853.312 64h-682.688v469.312h682.688zM853.312 618.688h-682.688v128h682.688z" />
<glyph unicode="&#xe971;" glyph-name="call_black_24dp1" d="M820.443 308.882l-108.105 12.361c-2.968 0.368-6.404 0.578-9.889 0.578-23.481 0-44.735-9.53-60.107-24.933l-0.001-0.001-78.702-78.409c-121.674 62.789-218.372 159.486-279.476 277.58l-1.685 3.581 78.775 78.921c15.365 15.367 24.869 36.595 24.869 60.043 0 3.508-0.213 6.966-0.626 10.363l0.040-0.408-12.361 107.52c-5.117 42.701-41.122 75.484-84.785 75.484-0.099 0-0.197 0-0.296-0.001h-73.128c-0.327 0.005-0.713 0.007-1.1 0.007-46.778 0-84.699-37.921-84.699-84.699 0-1.263 0.028-2.52 0.082-3.769l-0.006 0.178c23.645-364.613 313.552-654.47 676.041-677.923l2.14-0.111c1.092-0.050 2.373-0.079 3.66-0.079 46.778 0 84.699 37.921 84.699 84.699 0 0.259-0.001 0.518-0.003 0.777v-0.040 73.801c0.001 0.128 0.001 0.279 0.001 0.43 0 43.451-32.775 79.247-74.952 84.014l-0.386 0.035z" />
<glyph unicode="&#xe972;" glyph-name="info_black_24dp1" d="M512 874.642c-235.628 0-426.642-191.014-426.642-426.642s191.014-426.642 426.642-426.642c235.628 0 426.642 191.014 426.642 426.642v0c-0.083 235.594-191.047 426.559-426.634 426.642h-0.009zM512 234.642c-23.517 0.083-42.559 19.125-42.642 42.634v170.723c0 23.571 19.108 42.679 42.679 42.679s42.679-19.108 42.679-42.679v0-170.642c-0.042-23.574-19.141-42.674-42.711-42.715h-0.004zM554.642 576h-85.285v85.285h85.358z" />
<glyph unicode="&#xe973;" glyph-name="local_taxi_black_2_24dp" d="M807.232 703.552c-8.936 25.283-32.631 43.072-60.482 43.072-0.044 0-0.089 0-0.133 0h-106.617v85.376h-256v-85.312h-106.688c-0.037 0-0.082 0-0.126 0-27.85 0-51.546-17.789-60.343-42.624l-0.138-0.448-88.704-255.616v-341.312c0.073-23.547 19.141-42.615 42.681-42.688h42.695c23.519 0.109 42.552 19.164 42.624 42.681v42.695h512v-42.688c0.073-23.547 19.141-42.615 42.681-42.688h42.695c23.519 0.109 42.552 19.164 42.624 42.681v341.319zM292.224 661.312h439.040l44.352-128h-527.744zM810.624 234.624h-597.312v198.848l5.12 14.528h587.52l4.672-14.528zM384 320c0-35.346-28.654-64-64-64s-64 28.654-64 64c0 35.346 28.654 64 64 64s64-28.654 64-64zM768 320c0-35.346-28.654-64-64-64s-64 28.654-64 64c0 35.346 28.654 64 64 64s64-28.654 64-64z" />
<glyph unicode="&#xe974;" glyph-name="mail_outline_black_24dp1" d="M853.358 789.358h-682.642c-46.935-0.166-84.919-38.253-84.919-85.211 0-0.052 0-0.103 0-0.155v0.008l-0.439-512c0.124-47.092 38.266-85.233 85.346-85.358h682.654c47.092 0.124 85.233 38.266 85.358 85.346v512.012c-0.124 47.092-38.266 85.233-85.346 85.358h-0.012zM810.715 192h-597.358c-23.517 0.083-42.559 19.125-42.642 42.634v384.081l296.082-185.198c12.812-8.238 28.454-13.134 45.239-13.134s32.427 4.895 45.575 13.336l-0.336-0.202 296.082 185.198v-384c-0.041-23.549-19.099-42.632-42.634-42.715h-0.008zM512 490.715l-341.285 213.285h682.642z" />
<glyph unicode="&#xe975;" glyph-name="miscellaneous_services_black_24dp1" d="M614.546 388.901l58.514 100.791c1.262 2.118 2.008 4.67 2.008 7.397 0 4.555-2.082 8.625-5.347 11.308l-0.025 0.020-61.659 48.347c1.255 8.466 1.998 18.277 2.048 28.251v0.056c-0.066 10.199-0.808 20.163-2.184 29.923l0.136-1.178 61.659 48.347c3.29 2.703 5.372 6.772 5.372 11.328 0 2.727-0.746 5.279-2.045 7.464l0.037-0.067-58.514 100.718c-2.589 4.347-7.265 7.215-12.611 7.215-1.91 0-3.735-0.366-5.408-1.032l0.099 0.035-72.485-29.257c-14.191 11.161-30.383 20.802-47.753 28.214l-1.399 0.531-10.825 77.312c-1.455 6.85-7.393 11.936-14.541 12.068h-116.677c-7.314-0.14-13.349-5.447-14.615-12.415l-0.014-0.092-10.825-77.093c-18.764-8.060-34.944-17.692-49.657-29.123l0.505 0.378-72.485 29.257c-1.574 0.631-3.399 0.998-5.309 0.998-5.346 0-10.021-2.867-12.574-7.148l-0.037-0.067-58.514-100.791c-1.262-2.118-2.008-4.67-2.008-7.397 0-4.555 2.082-8.625 5.347-11.308l0.025-0.020 61.659-48.347c-1.255-8.466-1.998-18.277-2.048-28.251v-0.056c0.066-10.199 0.808-20.163 2.184-29.923l-0.136 1.178-61.659-48.347c-3.29-2.703-5.372-6.772-5.372-11.328 0-2.727 0.746-5.279 2.045-7.464l-0.037 0.067 58.514-100.791c2.589-4.347 7.265-7.215 12.611-7.215 1.91 0 3.735 0.366 5.408 1.032l-0.099-0.035 72.485 29.257c14.191-11.161 30.383-20.802 47.753-28.214l1.399-0.531 10.825-77.093c1.461-6.874 7.436-11.972 14.618-12.068h116.673c7.314 0.14 13.349 5.447 14.615 12.415l0.014 0.092 10.825 77.093c18.849 7.952 35.107 17.493 49.903 28.844l-0.531-0.392 72.485-29.257c1.487-0.558 3.205-0.881 4.999-0.881 5.358 0 10.043 2.88 12.591 7.177l0.037 0.068zM391.241 501.76c-46.011 0-83.31 37.299-83.31 83.31s37.299 83.31 83.31 83.31c46.011 0 83.31-37.299 83.31-83.31v0c-0.124-45.961-37.349-83.185-83.298-83.31h-0.012zM937.691 182.272l-40.009 30.793c0.936 5.425 1.543 11.764 1.68 18.219l0.002 0.14c0.005 0.347 0.008 0.757 0.008 1.167 0 6.083-0.615 12.023-1.787 17.76l0.097-0.568 39.57 30.793c2.060 1.755 3.358 4.352 3.358 7.252 0 1.776-0.487 3.438-1.334 4.86l0.024-0.044-37.522 64.585c-1.729 2.858-4.82 4.738-8.351 4.738-1.176 0-2.303-0.209-3.346-0.591l0.068 0.022-46.226-18.725c-9.109 7.292-19.562 13.468-30.83 18.056l-0.841 0.303-7.314 49.152c-0.347 4.611-4.123 8.234-8.767 8.338h-74.543c-0.044 0.001-0.096 0.001-0.149 0.001-4.597 0-8.395-3.42-8.989-7.854l-0.005-0.046-7.314-49.152c-12.090-5.208-22.512-11.357-32.033-18.624l0.363 0.266-46.226 18.725c-0.993 0.381-2.142 0.602-3.343 0.602-3.52 0-6.597-1.898-8.262-4.726l-0.024-0.045-37.522-64.585c-0.823-1.379-1.31-3.041-1.31-4.817 0-2.9 1.298-5.497 3.345-7.241l0.013-0.011 39.57-30.793c-0.792-5.493-1.244-11.837-1.244-18.286s0.452-12.792 1.326-19l-0.082 0.714-39.57-30.793c-2.060-1.755-3.358-4.352-3.358-7.252 0-1.776 0.487-3.438 1.334-4.86l-0.024 0.044 37.522-64.585c1.729-2.858 4.82-4.738 8.351-4.738 1.176 0 2.303 0.209 3.346 0.591l-0.068-0.022 46.226 18.725c9.109-7.292 19.562-13.468 30.83-18.056l0.841-0.303 7.314-49.152c0.726-4.468 4.532-7.846 9.137-7.899h74.539c0.044-0.001 0.096-0.001 0.149-0.001 4.597 0 8.395 3.42 8.989 7.854l0.005 0.046 7.314 49.152c11.926 5.086 22.213 11.241 31.523 18.58l-0.291-0.221 46.665-18.725c0.993-0.381 2.142-0.602 3.343-0.602 3.52 0 6.597 1.898 8.262 4.726l0.024 0.045 37.522 64.585c0.774 1.308 1.232 2.882 1.232 4.564 0 2.768-1.24 5.246-3.194 6.909l-0.013 0.011zM759.003 175.616c-31.064 0-56.247 25.183-56.247 56.247s25.183 56.247 56.247 56.247c31.064 0 56.247-25.183 56.247-56.247v0c0 0 0-0.001 0-0.001 0-31.064-25.183-56.247-56.247-56.247-0.129 0-0.257 0-0.385 0.001h0.020z" />
<glyph unicode="&#xe976;" glyph-name="perm_identity_black_24dp" d="M512 704c47.116 0 85.312-38.195 85.312-85.312s-38.195-85.312-85.312-85.312c-47.094 0-85.276 38.159-85.312 85.244v0.004c0.109 47.086 38.232 85.231 85.298 85.376h0.014zM512 320c115.2 0 247.488-55.040 256-85.312v-42.688h-512v42.24c8.512 30.72 140.8 85.76 256 85.76zM512 789.312c-94.268 0-170.688-76.42-170.688-170.688s76.42-170.688 170.688-170.688c94.268 0 170.688 76.42 170.688 170.688v0c0 0.019 0 0.042 0 0.064 0 94.233-76.391 170.624-170.624 170.624-0.023 0-0.045 0-0.068 0h0.004zM512 405.312c-113.92 0-341.312-57.152-341.312-170.688v-128h682.688v128c0 113.536-227.456 170.688-341.376 170.688z" />
<glyph unicode="&#xe977;" glyph-name="person_black_24dp1" d="M512 448c0.019 0 0.041 0 0.064 0 94.268 0 170.688 76.42 170.688 170.688s-76.42 170.688-170.688 170.688c-94.268 0-170.688-76.42-170.688-170.688 0-0.023 0-0.045 0-0.068v0.004c0-94.233 76.391-170.624 170.624-170.624v0zM512 362.688c-113.92-0.064-341.312-57.216-341.312-170.688v-85.312h682.688v85.312c0 113.472-227.456 170.624-341.376 170.624z" />
<glyph unicode="&#xe978;" glyph-name="route_black_24dp1" d="M810.688 312.32v348.992c-1.855 92.836-77.55 167.383-170.656 167.383s-168.801-74.547-170.653-167.21l-0.003-0.173v-426.688c0-47.134-38.21-85.344-85.344-85.344s-85.344 38.21-85.344 85.344v0 349.056c50.146 18.1 85.344 65.281 85.344 120.683 0 70.692-57.308 128-128 128s-128-57.308-128-128c0-55.402 35.198-102.584 84.453-120.402l0.891-0.282v-348.992c-0.020-0.983-0.032-2.143-0.032-3.305 0-94.268 76.42-170.688 170.688-170.688s170.688 76.42 170.688 170.688c0 1.162-0.012 2.322-0.035 3.478l0.003-0.173v426.624c0 47.134 38.21 85.344 85.344 85.344s85.344-38.21 85.344-85.344v0-348.992c-50.146-18.1-85.344-65.281-85.344-120.683 0-70.692 57.308-128 128-128s128 57.308 128 128c0 55.402-35.198 102.584-84.453 120.402l-0.891 0.282z" />
</font>
</defs>
</svg>
